<svg width="387" height="296" viewBox="0 0 387 296" fill="none" xmlns="http://www.w3.org/2000/svg">
<g clip-path="url(#clip0_456_238)">
<rect width="387" height="296" fill="#EEEEEE"/>
<path d="M387.304 0.39715C387.523 0.229386 387.565 -0.0844234 387.397 -0.303763C387.229 -0.523103 386.916 -0.564914 386.696 -0.39715L387 0L387.304 0.39715ZM214.115 131.603C213.896 131.771 213.854 132.084 214.022 132.304C214.19 132.523 214.503 132.565 214.723 132.397L214.419 132L214.115 131.603ZM172.885 164.397C173.104 164.229 173.146 163.916 172.978 163.696C172.81 163.477 172.497 163.435 172.277 163.603L172.581 164L172.885 164.397ZM-0.303763 295.603C-0.523103 295.771 -0.564914 296.084 -0.39715 296.304C-0.229386 296.523 0.0844234 296.565 0.303763 296.397L0 296L-0.303763 295.603ZM0.303763 -0.39715C0.0844234 -0.564914 -0.229386 -0.523103 -0.39715 -0.303763C-0.564914 -0.0844234 -0.523103 0.229386 -0.303763 0.39715L0 0L0.303763 -0.39715ZM172.277 132.397C172.497 132.565 172.81 132.523 172.978 132.304C173.146 132.084 173.104 131.771 172.885 131.603L172.581 132L172.277 132.397ZM214.723 163.603C214.503 163.435 214.19 163.477 214.022 163.696C213.854 163.916 213.896 164.229 214.115 164.397L214.419 164L214.723 163.603ZM386.696 296.397C386.916 296.565 387.229 296.523 387.397 296.304C387.565 296.084 387.523 295.771 387.304 295.603L387 296L386.696 296.397ZM387 0L386.696 -0.39715L214.115 131.603L214.419 132L214.723 132.397L387.304 0.39715L387 0ZM172.581 164L172.277 163.603L-0.303763 295.603L0 296L0.303763 296.397L172.885 164.397L172.581 164ZM0 0L-0.303763 0.39715L172.277 132.397L172.581 132L172.885 131.603L0.303763 -0.39715L0 0ZM214.419 164L214.115 164.397L386.696 296.397L387 296L387.304 295.603L214.723 163.603L214.419 164Z" fill="black"/>
<path d="M142.89 143.273V152H141.701V143.273H142.89ZM144.781 152V145.455H145.88V146.499H145.966C146.102 146.143 146.322 145.866 146.626 145.668C146.933 145.469 147.301 145.369 147.73 145.369C148.164 145.369 148.528 145.469 148.821 145.668C149.116 145.866 149.339 146.143 149.49 146.499H149.558C149.72 146.155 149.97 145.881 150.308 145.676C150.646 145.472 151.051 145.369 151.522 145.369C152.11 145.369 152.591 145.554 152.963 145.923C153.338 146.293 153.525 146.857 153.525 147.615V152H152.387V147.675C152.387 147.212 152.261 146.879 152.008 146.678C151.755 146.473 151.456 146.371 151.109 146.371C150.672 146.371 150.332 146.504 150.091 146.771C149.849 147.036 149.728 147.372 149.728 147.781V152H148.582V147.585C148.582 147.222 148.466 146.929 148.233 146.707C148.002 146.483 147.704 146.371 147.338 146.371C147.085 146.371 146.85 146.437 146.635 146.571C146.422 146.705 146.25 146.889 146.119 147.125C145.988 147.358 145.923 147.628 145.923 147.935V152H144.781ZM157.21 152.149C156.795 152.149 156.419 152.071 156.081 151.915C155.746 151.759 155.479 151.533 155.28 151.237C155.084 150.939 154.986 150.575 154.986 150.146C154.986 149.774 155.058 149.47 155.203 149.234C155.351 148.996 155.547 148.808 155.791 148.672C156.036 148.536 156.307 148.433 156.605 148.365C156.903 148.297 157.206 148.244 157.513 148.207C157.908 148.156 158.227 148.116 158.472 148.088C158.719 148.06 158.899 148.013 159.013 147.947C159.126 147.882 159.183 147.77 159.183 147.611V147.577C159.183 147.182 159.074 146.875 158.855 146.656C158.636 146.438 158.308 146.328 157.871 146.328C157.416 146.328 157.06 146.428 156.801 146.626C156.543 146.825 156.361 147.043 156.256 147.278L155.182 146.972C155.338 146.574 155.555 146.259 155.834 146.026C156.115 145.79 156.429 145.622 156.776 145.523C157.125 145.42 157.482 145.369 157.845 145.369C158.081 145.369 158.341 145.398 158.625 145.455C158.909 145.509 159.179 145.615 159.435 145.774C159.693 145.93 159.906 146.162 160.074 146.469C160.241 146.773 160.325 147.173 160.325 147.67V152H159.2V151.109H159.149C159.075 151.263 158.957 151.42 158.795 151.582C158.634 151.741 158.422 151.876 158.161 151.987C157.899 152.095 157.582 152.149 157.21 152.149ZM157.423 151.186C157.801 151.186 158.121 151.112 158.382 150.964C158.643 150.817 158.842 150.625 158.979 150.389C159.118 150.153 159.188 149.902 159.188 149.635V148.753C159.142 148.801 159.051 148.845 158.915 148.885C158.778 148.925 158.622 148.959 158.446 148.987C158.273 149.016 158.102 149.041 157.935 149.064C157.77 149.084 157.634 149.101 157.526 149.115C157.273 149.149 157.038 149.203 156.822 149.277C156.609 149.351 156.438 149.46 156.307 149.605C156.179 149.747 156.115 149.939 156.115 150.18C156.115 150.513 156.239 150.764 156.486 150.935C156.733 151.102 157.045 151.186 157.423 151.186ZM164.783 154.591C164.28 154.591 163.848 154.526 163.487 154.395C163.126 154.267 162.828 154.097 162.592 153.884C162.359 153.67 162.18 153.44 162.055 153.193L163.001 152.686C163.087 152.808 163.196 152.943 163.33 153.091C163.466 153.239 163.651 153.366 163.884 153.474C164.116 153.582 164.419 153.636 164.791 153.636C165.297 153.636 165.714 153.513 166.044 153.266C166.374 153.021 166.538 152.635 166.538 152.107V150.798H166.453C166.379 150.929 166.273 151.081 166.134 151.254C165.994 151.425 165.798 151.575 165.545 151.706C165.295 151.834 164.964 151.898 164.553 151.898C164.03 151.898 163.56 151.776 163.142 151.531C162.727 151.284 162.399 150.922 162.158 150.445C161.916 149.967 161.795 149.385 161.795 148.697C161.795 148.016 161.913 147.426 162.149 146.929C162.385 146.429 162.712 146.044 163.129 145.774C163.547 145.504 164.026 145.369 164.565 145.369C164.983 145.369 165.317 145.439 165.567 145.578C165.817 145.714 166.01 145.872 166.146 146.051C166.286 146.23 166.393 146.381 166.47 146.503H166.564V145.455H167.676V152.166C167.676 152.729 167.547 153.188 167.288 153.543C167.033 153.901 166.686 154.165 166.249 154.335C165.811 154.506 165.322 154.591 164.783 154.591ZM164.761 150.918C165.148 150.918 165.473 150.83 165.737 150.653C166.004 150.474 166.207 150.217 166.347 149.882C166.486 149.547 166.555 149.146 166.555 148.68C166.555 148.223 166.487 147.821 166.351 147.474C166.214 147.128 166.013 146.857 165.746 146.661C165.479 146.462 165.151 146.362 164.761 146.362C164.358 146.362 164.021 146.466 163.751 146.673C163.482 146.881 163.278 147.159 163.142 147.509C163.009 147.858 162.942 148.249 162.942 148.68C162.942 149.124 163.01 149.513 163.146 149.848C163.286 150.183 163.489 150.446 163.756 150.636C164.026 150.824 164.361 150.918 164.761 150.918ZM172.236 152.136C171.597 152.136 171.047 151.997 170.587 151.719C170.126 151.438 169.771 151.045 169.521 150.543C169.274 150.037 169.151 149.447 169.151 148.774C169.151 148.104 169.274 147.513 169.521 147.001C169.771 146.487 170.119 146.087 170.565 145.8C171.014 145.513 171.538 145.369 172.138 145.369C172.493 145.369 172.839 145.429 173.178 145.548C173.518 145.665 173.825 145.852 174.098 146.111C174.374 146.366 174.591 146.703 174.75 147.121C174.912 147.538 174.993 148.048 174.993 148.651V149.089H169.866V148.178H173.855C173.855 147.825 173.784 147.513 173.642 147.24C173.503 146.964 173.304 146.747 173.045 146.588C172.79 146.429 172.489 146.349 172.142 146.349C171.761 146.349 171.432 146.442 171.153 146.626C170.878 146.811 170.665 147.053 170.514 147.351C170.364 147.649 170.288 147.97 170.288 148.314V148.974C170.288 149.44 170.369 149.837 170.531 150.163C170.696 150.487 170.925 150.734 171.217 150.905C171.51 151.072 171.851 151.156 172.24 151.156C172.493 151.156 172.723 151.121 172.93 151.05C173.138 150.976 173.315 150.866 173.463 150.722C173.614 150.577 173.73 150.395 173.812 150.176L174.903 150.423C174.804 150.764 174.631 151.064 174.384 151.322C174.139 151.578 173.834 151.778 173.467 151.923C173.104 152.065 172.693 152.136 172.236 152.136ZM179.869 152V143.273H182.903C183.582 143.273 184.142 143.396 184.582 143.643C185.025 143.891 185.355 144.226 185.571 144.649C185.787 145.07 185.895 145.543 185.895 146.068C185.895 146.594 185.787 147.068 185.571 147.491C185.355 147.915 185.027 148.251 184.586 148.501C184.146 148.749 183.586 148.872 182.907 148.872H180.781V147.845H182.831C183.279 147.845 183.642 147.767 183.917 147.611C184.193 147.455 184.393 147.243 184.518 146.976C184.646 146.709 184.71 146.406 184.71 146.068C184.71 145.727 184.646 145.425 184.518 145.161C184.393 144.893 184.191 144.685 183.913 144.534C183.635 144.381 183.268 144.304 182.814 144.304H181.058V152H179.869ZM188.532 143.273V152H187.39V143.273H188.532ZM192.226 152.149C191.811 152.149 191.435 152.071 191.097 151.915C190.761 151.759 190.494 151.533 190.295 151.237C190.099 150.939 190.001 150.575 190.001 150.146C190.001 149.774 190.074 149.47 190.219 149.234C190.366 148.996 190.563 148.808 190.807 148.672C191.051 148.536 191.322 148.433 191.621 148.365C191.919 148.297 192.222 148.244 192.528 148.207C192.923 148.156 193.243 148.116 193.487 148.088C193.734 148.06 193.915 148.013 194.028 147.947C194.142 147.882 194.199 147.77 194.199 147.611V147.577C194.199 147.182 194.089 146.875 193.871 146.656C193.652 146.438 193.324 146.328 192.886 146.328C192.432 146.328 192.075 146.428 191.817 146.626C191.558 146.825 191.376 147.043 191.271 147.278L190.197 146.972C190.354 146.574 190.571 146.259 190.849 146.026C191.131 145.79 191.445 145.622 191.791 145.523C192.141 145.42 192.497 145.369 192.861 145.369C193.097 145.369 193.357 145.398 193.641 145.455C193.925 145.509 194.195 145.615 194.45 145.774C194.709 145.93 194.922 146.162 195.089 146.469C195.257 146.773 195.341 147.173 195.341 147.67V152H194.216V151.109H194.165C194.091 151.263 193.973 151.42 193.811 151.582C193.649 151.741 193.438 151.876 193.176 151.987C192.915 152.095 192.598 152.149 192.226 152.149ZM192.439 151.186C192.817 151.186 193.136 151.112 193.398 150.964C193.659 150.817 193.858 150.625 193.994 150.389C194.134 150.153 194.203 149.902 194.203 149.635V148.753C194.158 148.801 194.067 148.845 193.93 148.885C193.794 148.925 193.638 148.959 193.462 148.987C193.288 149.016 193.118 149.041 192.95 149.064C192.786 149.084 192.649 149.101 192.541 149.115C192.288 149.149 192.054 149.203 191.838 149.277C191.625 149.351 191.453 149.46 191.322 149.605C191.195 149.747 191.131 149.939 191.131 150.18C191.131 150.513 191.254 150.764 191.501 150.935C191.749 151.102 192.061 151.186 192.439 151.186ZM199.815 152.136C199.193 152.136 198.656 151.991 198.205 151.702C197.756 151.412 197.411 151.013 197.169 150.504C196.928 149.996 196.807 149.415 196.807 148.761C196.807 148.094 196.93 147.506 197.178 146.997C197.428 146.489 197.776 146.091 198.222 145.804C198.67 145.514 199.196 145.369 199.798 145.369C200.278 145.369 200.707 145.457 201.085 145.634C201.466 145.81 201.776 146.057 202.014 146.375C202.253 146.693 202.398 147.065 202.449 147.491H201.324C201.253 147.187 201.089 146.923 200.834 146.699C200.581 146.472 200.243 146.358 199.82 146.358C199.445 146.358 199.116 146.456 198.835 146.652C198.557 146.845 198.339 147.119 198.183 147.474C198.03 147.83 197.953 148.247 197.953 148.727C197.953 149.219 198.03 149.645 198.183 150.006C198.337 150.366 198.553 150.646 198.831 150.845C199.112 151.044 199.442 151.143 199.82 151.143C200.072 151.143 200.301 151.098 200.506 151.007C200.71 150.916 200.884 150.787 201.026 150.619C201.168 150.449 201.267 150.246 201.324 150.01H202.449C202.395 150.413 202.254 150.776 202.027 151.097C201.803 151.418 201.503 151.672 201.128 151.859C200.753 152.044 200.315 152.136 199.815 152.136ZM206.654 152.136C206.015 152.136 205.465 151.997 205.005 151.719C204.544 151.438 204.189 151.045 203.939 150.543C203.692 150.037 203.569 149.447 203.569 148.774C203.569 148.104 203.692 147.513 203.939 147.001C204.189 146.487 204.537 146.087 204.983 145.8C205.432 145.513 205.956 145.369 206.556 145.369C206.911 145.369 207.257 145.429 207.596 145.548C207.936 145.665 208.243 145.852 208.516 146.111C208.792 146.366 209.009 146.703 209.168 147.121C209.33 147.538 209.411 148.048 209.411 148.651V149.089H204.284V148.178H208.273C208.273 147.825 208.202 147.513 208.06 147.24C207.921 146.964 207.722 146.747 207.463 146.588C207.208 146.429 206.907 146.349 206.56 146.349C206.179 146.349 205.85 146.442 205.571 146.626C205.296 146.811 205.083 147.053 204.932 147.351C204.782 147.649 204.706 147.97 204.706 148.314V148.974C204.706 149.44 204.787 149.837 204.949 150.163C205.114 150.487 205.343 150.734 205.635 150.905C205.928 151.072 206.269 151.156 206.658 151.156C206.911 151.156 207.141 151.121 207.348 151.05C207.556 150.976 207.733 150.866 207.881 150.722C208.032 150.577 208.148 150.395 208.23 150.176L209.321 150.423C209.222 150.764 209.049 151.064 208.801 151.322C208.557 151.578 208.252 151.778 207.885 151.923C207.522 152.065 207.111 152.136 206.654 152.136ZM212.028 148.088V152H210.886V143.273H212.02V146.499H212.105C212.256 146.152 212.487 145.878 212.8 145.676C213.112 145.472 213.524 145.369 214.036 145.369C214.482 145.369 214.872 145.46 215.207 145.642C215.545 145.821 215.807 146.094 215.991 146.46C216.179 146.827 216.273 147.287 216.273 147.841V152H215.131V147.952C215.131 147.452 215.001 147.064 214.743 146.788C214.487 146.513 214.131 146.375 213.673 146.375C213.358 146.375 213.075 146.442 212.825 146.575C212.578 146.709 212.384 146.903 212.241 147.159C212.099 147.415 212.028 147.724 212.028 148.088ZM220.757 152.136C220.154 152.136 219.627 151.996 219.176 151.714C218.724 151.43 218.373 151.036 218.123 150.53C217.873 150.024 217.748 149.435 217.748 148.761C217.748 148.08 217.873 147.484 218.123 146.976C218.373 146.467 218.724 146.072 219.176 145.791C219.627 145.51 220.154 145.369 220.757 145.369C221.359 145.369 221.886 145.51 222.338 145.791C222.789 146.072 223.14 146.467 223.39 146.976C223.64 147.484 223.765 148.08 223.765 148.761C223.765 149.435 223.64 150.024 223.39 150.53C223.14 151.036 222.789 151.43 222.338 151.714C221.886 151.996 221.359 152.136 220.757 152.136ZM220.757 151.148C221.183 151.148 221.532 151.038 221.805 150.82C222.081 150.598 222.285 150.307 222.419 149.946C222.552 149.582 222.619 149.186 222.619 148.757C222.619 148.331 222.552 147.936 222.419 147.572C222.285 147.206 222.081 146.912 221.805 146.69C221.532 146.466 221.183 146.354 220.757 146.354C220.333 146.354 219.984 146.466 219.708 146.69C219.433 146.912 219.228 147.206 219.095 147.572C218.961 147.936 218.895 148.331 218.895 148.757C218.895 149.186 218.961 149.582 219.095 149.946C219.228 150.307 219.433 150.598 219.708 150.82C219.984 151.038 220.333 151.148 220.757 151.148ZM226.384 143.273V152H225.242V143.273H226.384ZM230.623 152.132C230.086 152.132 229.61 151.996 229.195 151.723C228.781 151.447 228.455 151.057 228.219 150.551C227.984 150.045 227.866 149.443 227.866 148.744C227.866 148.045 227.984 147.445 228.219 146.942C228.455 146.436 228.782 146.048 229.2 145.778C229.617 145.506 230.096 145.369 230.636 145.369C231.053 145.369 231.386 145.439 231.633 145.578C231.88 145.714 232.072 145.872 232.208 146.051C232.344 146.23 232.45 146.381 232.523 146.503H232.604V143.273H233.742V152H232.634V150.986H232.523C232.447 151.116 232.339 151.273 232.2 151.455C232.06 151.634 231.864 151.791 231.612 151.928C231.362 152.064 231.032 152.132 230.623 152.132ZM230.832 151.139C231.218 151.139 231.543 151.038 231.808 150.837C232.075 150.632 232.278 150.349 232.417 149.989C232.556 149.625 232.626 149.205 232.626 148.727C232.626 148.256 232.558 147.842 232.421 147.487C232.285 147.132 232.083 146.857 231.816 146.661C231.549 146.462 231.221 146.362 230.832 146.362C230.428 146.362 230.092 146.467 229.822 146.678C229.552 146.885 229.349 147.168 229.212 147.526C229.079 147.881 229.012 148.281 229.012 148.727C229.012 149.179 229.08 149.588 229.217 149.955C229.356 150.318 229.559 150.607 229.826 150.82C230.096 151.033 230.431 151.139 230.832 151.139ZM238.423 152.136C237.784 152.136 237.234 151.997 236.774 151.719C236.314 151.438 235.959 151.045 235.709 150.543C235.462 150.037 235.338 149.447 235.338 148.774C235.338 148.104 235.462 147.513 235.709 147.001C235.959 146.487 236.307 146.087 236.753 145.8C237.202 145.513 237.726 145.369 238.325 145.369C238.68 145.369 239.027 145.429 239.365 145.548C239.706 145.665 240.013 145.852 240.286 146.111C240.561 146.366 240.778 146.703 240.938 147.121C241.099 147.538 241.18 148.048 241.18 148.651V149.089H236.054V148.178H240.043C240.043 147.825 239.972 147.513 239.83 147.24C239.69 146.964 239.491 146.747 239.233 146.588C238.977 146.429 238.676 146.349 238.33 146.349C237.949 146.349 237.619 146.442 237.341 146.626C237.065 146.811 236.852 147.053 236.702 147.351C236.551 147.649 236.476 147.97 236.476 148.314V148.974C236.476 149.44 236.557 149.837 236.719 150.163C236.884 150.487 237.112 150.734 237.405 150.905C237.697 151.072 238.038 151.156 238.428 151.156C238.68 151.156 238.911 151.121 239.118 151.05C239.325 150.976 239.503 150.866 239.651 150.722C239.801 150.577 239.918 150.395 240 150.176L241.091 150.423C240.991 150.764 240.818 151.064 240.571 151.322C240.327 151.578 240.021 151.778 239.655 151.923C239.291 152.065 238.881 152.136 238.423 152.136ZM242.656 152V145.455H243.76V146.469H243.828C243.947 146.131 244.16 145.861 244.467 145.659C244.777 145.455 245.125 145.352 245.511 145.352C245.588 145.352 245.68 145.355 245.788 145.361C245.899 145.364 245.985 145.369 246.048 145.378V146.499C246.005 146.487 245.92 146.473 245.792 146.456C245.667 146.436 245.539 146.426 245.409 146.426C245.099 146.426 244.822 146.491 244.578 146.622C244.336 146.75 244.146 146.928 244.007 147.155C243.868 147.382 243.798 147.641 243.798 147.93V152H242.656Z" fill="black"/>
</g>
<rect x="339" y="16" width="32" height="32" rx="8" fill="#66AC6E"/>
<g clip-path="url(#clip1_456_238)">
<path fill-rule="evenodd" clip-rule="evenodd" d="M347 25.1429V29.1429C347 29.256 347.033 29.3667 347.096 29.4609C347.159 29.555 347.248 29.6284 347.353 29.6718C347.457 29.7151 347.572 29.7264 347.683 29.7043C347.794 29.6821 347.896 29.6276 347.976 29.5474L349.453 28.0686L351.906 30.5211C352.122 30.7293 352.411 30.8445 352.71 30.8419C353.01 30.8393 353.296 30.7191 353.508 30.5072C353.72 30.2953 353.84 30.0087 353.843 29.709C353.846 29.4094 353.73 29.1207 353.522 28.9051L351.07 26.4526L352.547 24.976C352.628 24.8961 352.682 24.7942 352.704 24.6832C352.726 24.5722 352.715 24.4572 352.672 24.3526C352.628 24.2481 352.555 24.1588 352.461 24.096C352.367 24.0332 352.256 23.9998 352.143 24H347.571C347.42 24 347.275 24.0602 347.167 24.1674C347.06 24.2745 347 24.4199 347 24.5714V25.1429ZM353.522 35.0937C353.73 34.8782 353.846 34.5895 353.843 34.2898C353.84 33.9902 353.72 33.7035 353.508 33.4916C353.296 33.2797 353.01 33.1595 352.71 33.1569C352.411 33.1543 352.122 33.2695 351.906 33.4777L349.453 35.9303L347.976 34.4526C347.896 34.3725 347.794 34.3179 347.683 34.2957C347.572 34.2736 347.457 34.2849 347.353 34.3282C347.248 34.3716 347.159 34.445 347.096 34.5391C347.033 34.6333 347 34.744 347 34.8571V39.4286C347 39.5801 347.06 39.7255 347.167 39.8326C347.275 39.9398 347.42 40 347.571 40H352.143C352.256 40.0002 352.367 39.9668 352.461 39.904C352.555 39.8412 352.628 39.7519 352.672 39.6474C352.715 39.5428 352.726 39.4278 352.704 39.3168C352.682 39.2058 352.628 39.1039 352.547 39.024L351.069 37.5474L353.521 35.0937H353.522ZM356.478 33.4777C356.692 33.2635 356.983 33.1431 357.286 33.1431C357.589 33.1431 357.879 33.2635 358.094 33.4777L360.547 35.9303L362.024 34.4526C362.104 34.3725 362.206 34.3179 362.317 34.2957C362.428 34.2736 362.543 34.2849 362.647 34.3282C362.752 34.3716 362.841 34.445 362.904 34.5391C362.967 34.6333 363 34.744 363 34.8571V39.4286C363 39.5801 362.94 39.7255 362.833 39.8326C362.725 39.9398 362.58 40 362.429 40H357.857C357.744 40.0002 357.633 39.9668 357.539 39.904C357.445 39.8412 357.372 39.7519 357.328 39.6474C357.285 39.5428 357.274 39.4278 357.296 39.3168C357.318 39.2058 357.372 39.1039 357.453 39.024L358.93 37.5474L356.478 35.0937C356.263 34.8794 356.143 34.5888 356.143 34.2857C356.143 33.9827 356.263 33.692 356.478 33.4777ZM357.857 24C357.744 23.9998 357.633 24.0332 357.539 24.096C357.445 24.1588 357.372 24.2481 357.328 24.3526C357.285 24.4572 357.274 24.5722 357.296 24.6832C357.318 24.7942 357.372 24.8961 357.453 24.976L358.93 26.4526L356.478 28.9063C356.27 29.1218 356.154 29.4105 356.157 29.7102C356.16 30.0098 356.28 30.2965 356.492 30.5084C356.704 30.7203 356.99 30.8405 357.29 30.8431C357.589 30.8457 357.878 30.7305 358.094 30.5223L360.547 28.0697L362.024 29.5474C362.104 29.6276 362.206 29.6821 362.317 29.7043C362.428 29.7264 362.543 29.7151 362.647 29.6718C362.752 29.6284 362.841 29.555 362.904 29.4609C362.967 29.3667 363 29.256 363 29.1429V24.5714C363 24.4199 362.94 24.2745 362.833 24.1674C362.725 24.0602 362.58 24 362.429 24H357.857Z" fill="#F9F9F9"/>
</g>
<defs>
<clipPath id="clip0_456_238">
<rect width="387" height="296" fill="white"/>
</clipPath>
<clipPath id="clip1_456_238">
<rect width="16" height="16" fill="white" transform="translate(347 24)"/>
</clipPath>
</defs>
</svg>
