<svg width="1212" height="526" viewBox="0 0 1212 526" fill="none" xmlns="http://www.w3.org/2000/svg">
<g filter="url(#filter0_d_459_4470)">
<mask id="mask0_459_4470" style="mask-type:luminance" maskUnits="userSpaceOnUse" x="4" y="4" width="1196" height="510">
<path d="M1156 4H48C23.6995 4 4 23.6995 4 48V470C4 494.301 23.6995 514 48 514H1156C1180.3 514 1200 494.301 1200 470V48C1200 23.6995 1180.3 4 1156 4Z" fill="white"/>
</mask>
<g mask="url(#mask0_459_4470)">
<path d="M1156 4H48C23.6995 4 4 23.6995 4 48V470C4 494.301 23.6995 514 48 514H1156C1180.3 514 1200 494.301 1200 470V48C1200 23.6995 1180.3 4 1156 4Z" fill="#EEEEEE"/>
<path d="M551.39 254.273V263H550.201V254.273H551.39ZM553.281 263V256.455H554.38V257.499H554.466C554.602 257.143 554.822 256.866 555.126 256.668C555.433 256.469 555.801 256.369 556.23 256.369C556.664 256.369 557.028 256.469 557.321 256.668C557.616 256.866 557.839 257.143 557.99 257.499H558.058C558.22 257.155 558.47 256.881 558.808 256.676C559.146 256.472 559.551 256.369 560.022 256.369C560.61 256.369 561.091 256.554 561.463 256.923C561.838 257.293 562.025 257.857 562.025 258.615V263H560.887V258.675C560.887 258.212 560.761 257.879 560.508 257.678C560.255 257.473 559.956 257.371 559.609 257.371C559.172 257.371 558.832 257.504 558.591 257.771C558.349 258.036 558.228 258.372 558.228 258.781V263H557.082V258.585C557.082 258.222 556.966 257.929 556.733 257.707C556.502 257.483 556.204 257.371 555.838 257.371C555.585 257.371 555.35 257.437 555.135 257.571C554.922 257.705 554.75 257.889 554.619 258.125C554.488 258.358 554.423 258.628 554.423 258.935V263H553.281ZM565.71 263.149C565.295 263.149 564.919 263.071 564.581 262.915C564.246 262.759 563.979 262.533 563.78 262.237C563.584 261.939 563.486 261.575 563.486 261.146C563.486 260.774 563.558 260.47 563.703 260.234C563.851 259.996 564.047 259.808 564.291 259.672C564.536 259.536 564.807 259.433 565.105 259.365C565.403 259.297 565.706 259.244 566.013 259.207C566.408 259.156 566.727 259.116 566.972 259.088C567.219 259.06 567.399 259.013 567.513 258.947C567.626 258.882 567.683 258.77 567.683 258.611V258.577C567.683 258.182 567.574 257.875 567.355 257.656C567.136 257.438 566.808 257.328 566.371 257.328C565.916 257.328 565.56 257.428 565.301 257.626C565.043 257.825 564.861 258.043 564.756 258.278L563.682 257.972C563.838 257.574 564.055 257.259 564.334 257.026C564.615 256.79 564.929 256.622 565.276 256.523C565.625 256.42 565.982 256.369 566.345 256.369C566.581 256.369 566.841 256.398 567.125 256.455C567.409 256.509 567.679 256.615 567.935 256.774C568.193 256.93 568.406 257.162 568.574 257.469C568.741 257.773 568.825 258.173 568.825 258.67V263H567.7V262.109H567.649C567.575 262.263 567.457 262.42 567.295 262.582C567.134 262.741 566.922 262.876 566.661 262.987C566.399 263.095 566.082 263.149 565.71 263.149ZM565.923 262.186C566.301 262.186 566.621 262.112 566.882 261.964C567.143 261.817 567.342 261.625 567.479 261.389C567.618 261.153 567.688 260.902 567.688 260.635V259.753C567.642 259.801 567.551 259.845 567.415 259.885C567.278 259.925 567.122 259.959 566.946 259.987C566.773 260.016 566.602 260.041 566.435 260.064C566.27 260.084 566.134 260.101 566.026 260.115C565.773 260.149 565.538 260.203 565.322 260.277C565.109 260.351 564.938 260.46 564.807 260.605C564.679 260.747 564.615 260.939 564.615 261.18C564.615 261.513 564.739 261.764 564.986 261.935C565.233 262.102 565.545 262.186 565.923 262.186ZM573.283 265.591C572.78 265.591 572.348 265.526 571.987 265.395C571.626 265.267 571.328 265.097 571.092 264.884C570.859 264.67 570.68 264.44 570.555 264.193L571.501 263.686C571.587 263.808 571.696 263.943 571.83 264.091C571.966 264.239 572.151 264.366 572.384 264.474C572.616 264.582 572.919 264.636 573.291 264.636C573.797 264.636 574.214 264.513 574.544 264.266C574.874 264.021 575.038 263.635 575.038 263.107V261.798H574.953C574.879 261.929 574.773 262.081 574.634 262.254C574.494 262.425 574.298 262.575 574.045 262.706C573.795 262.834 573.464 262.898 573.053 262.898C572.53 262.898 572.06 262.776 571.642 262.531C571.227 262.284 570.899 261.922 570.658 261.445C570.416 260.967 570.295 260.385 570.295 259.697C570.295 259.016 570.413 258.426 570.649 257.929C570.885 257.429 571.212 257.044 571.629 256.774C572.047 256.504 572.526 256.369 573.065 256.369C573.483 256.369 573.817 256.439 574.067 256.578C574.317 256.714 574.51 256.872 574.646 257.051C574.786 257.23 574.893 257.381 574.97 257.503H575.064V256.455H576.176V263.166C576.176 263.729 576.047 264.188 575.788 264.543C575.533 264.901 575.186 265.165 574.749 265.335C574.311 265.506 573.822 265.591 573.283 265.591ZM573.261 261.918C573.648 261.918 573.973 261.83 574.237 261.653C574.504 261.474 574.707 261.217 574.847 260.882C574.986 260.547 575.055 260.146 575.055 259.68C575.055 259.223 574.987 258.821 574.851 258.474C574.714 258.128 574.513 257.857 574.246 257.661C573.979 257.462 573.651 257.362 573.261 257.362C572.858 257.362 572.521 257.466 572.251 257.673C571.982 257.881 571.778 258.159 571.642 258.509C571.509 258.858 571.442 259.249 571.442 259.68C571.442 260.124 571.51 260.513 571.646 260.848C571.786 261.183 571.989 261.446 572.256 261.636C572.526 261.824 572.861 261.918 573.261 261.918ZM580.736 263.136C580.097 263.136 579.547 262.997 579.087 262.719C578.626 262.438 578.271 262.045 578.021 261.543C577.774 261.037 577.651 260.447 577.651 259.774C577.651 259.104 577.774 258.513 578.021 258.001C578.271 257.487 578.619 257.087 579.065 256.8C579.514 256.513 580.038 256.369 580.638 256.369C580.993 256.369 581.339 256.429 581.678 256.548C582.018 256.665 582.325 256.852 582.598 257.111C582.874 257.366 583.091 257.703 583.25 258.121C583.412 258.538 583.493 259.048 583.493 259.651V260.089H578.366V259.178H582.355C582.355 258.825 582.284 258.513 582.142 258.24C582.003 257.964 581.804 257.747 581.545 257.588C581.29 257.429 580.989 257.349 580.642 257.349C580.261 257.349 579.932 257.442 579.653 257.626C579.378 257.811 579.165 258.053 579.014 258.351C578.864 258.649 578.788 258.97 578.788 259.314V259.974C578.788 260.44 578.869 260.837 579.031 261.163C579.196 261.487 579.425 261.734 579.717 261.905C580.01 262.072 580.351 262.156 580.74 262.156C580.993 262.156 581.223 262.121 581.43 262.05C581.638 261.976 581.815 261.866 581.963 261.722C582.114 261.577 582.23 261.395 582.312 261.176L583.403 261.423C583.304 261.764 583.131 262.064 582.884 262.322C582.639 262.578 582.334 262.778 581.967 262.923C581.604 263.065 581.193 263.136 580.736 263.136ZM588.369 263V254.273H591.403C592.082 254.273 592.642 254.396 593.082 254.643C593.525 254.891 593.855 255.226 594.071 255.649C594.287 256.07 594.395 256.543 594.395 257.068C594.395 257.594 594.287 258.068 594.071 258.491C593.855 258.915 593.527 259.251 593.086 259.501C592.646 259.749 592.086 259.872 591.407 259.872H589.281V258.845H591.331C591.779 258.845 592.142 258.767 592.417 258.611C592.693 258.455 592.893 258.243 593.018 257.976C593.146 257.709 593.21 257.406 593.21 257.068C593.21 256.727 593.146 256.425 593.018 256.161C592.893 255.893 592.691 255.685 592.413 255.534C592.135 255.381 591.768 255.304 591.314 255.304H589.558V263H588.369ZM597.032 254.273V263H595.89V254.273H597.032ZM600.726 263.149C600.311 263.149 599.935 263.071 599.597 262.915C599.261 262.759 598.994 262.533 598.795 262.237C598.599 261.939 598.501 261.575 598.501 261.146C598.501 260.774 598.574 260.47 598.719 260.234C598.866 259.996 599.063 259.808 599.307 259.672C599.551 259.536 599.822 259.433 600.121 259.365C600.419 259.297 600.722 259.244 601.028 259.207C601.423 259.156 601.743 259.116 601.987 259.088C602.234 259.06 602.415 259.013 602.528 258.947C602.642 258.882 602.699 258.77 602.699 258.611V258.577C602.699 258.182 602.589 257.875 602.371 257.656C602.152 257.438 601.824 257.328 601.386 257.328C600.932 257.328 600.575 257.428 600.317 257.626C600.058 257.825 599.876 258.043 599.771 258.278L598.697 257.972C598.854 257.574 599.071 257.259 599.349 257.026C599.631 256.79 599.945 256.622 600.291 256.523C600.641 256.42 600.997 256.369 601.361 256.369C601.597 256.369 601.857 256.398 602.141 256.455C602.425 256.509 602.695 256.615 602.95 256.774C603.209 256.93 603.422 257.162 603.589 257.469C603.757 257.773 603.841 258.173 603.841 258.67V263H602.716V262.109H602.665C602.591 262.263 602.473 262.42 602.311 262.582C602.149 262.741 601.938 262.876 601.676 262.987C601.415 263.095 601.098 263.149 600.726 263.149ZM600.939 262.186C601.317 262.186 601.636 262.112 601.898 261.964C602.159 261.817 602.358 261.625 602.494 261.389C602.634 261.153 602.703 260.902 602.703 260.635V259.753C602.658 259.801 602.567 259.845 602.43 259.885C602.294 259.925 602.138 259.959 601.962 259.987C601.788 260.016 601.618 260.041 601.45 260.064C601.286 260.084 601.149 260.101 601.041 260.115C600.788 260.149 600.554 260.203 600.338 260.277C600.125 260.351 599.953 260.46 599.822 260.605C599.695 260.747 599.631 260.939 599.631 261.18C599.631 261.513 599.754 261.764 600.001 261.935C600.249 262.102 600.561 262.186 600.939 262.186ZM608.315 263.136C607.693 263.136 607.156 262.991 606.705 262.702C606.256 262.412 605.911 262.013 605.669 261.504C605.428 260.996 605.307 260.415 605.307 259.761C605.307 259.094 605.43 258.506 605.678 257.997C605.928 257.489 606.276 257.091 606.722 256.804C607.17 256.514 607.696 256.369 608.298 256.369C608.778 256.369 609.207 256.457 609.585 256.634C609.966 256.81 610.276 257.057 610.514 257.375C610.753 257.693 610.898 258.065 610.949 258.491H609.824C609.753 258.187 609.589 257.923 609.334 257.699C609.081 257.472 608.743 257.358 608.32 257.358C607.945 257.358 607.616 257.456 607.335 257.652C607.057 257.845 606.839 258.119 606.683 258.474C606.53 258.83 606.453 259.247 606.453 259.727C606.453 260.219 606.53 260.645 606.683 261.006C606.837 261.366 607.053 261.646 607.331 261.845C607.612 262.044 607.942 262.143 608.32 262.143C608.572 262.143 608.801 262.098 609.006 262.007C609.21 261.916 609.384 261.787 609.526 261.619C609.668 261.449 609.767 261.246 609.824 261.01H610.949C610.895 261.413 610.754 261.776 610.527 262.097C610.303 262.418 610.003 262.672 609.628 262.859C609.253 263.044 608.815 263.136 608.315 263.136ZM615.154 263.136C614.515 263.136 613.965 262.997 613.505 262.719C613.044 262.438 612.689 262.045 612.439 261.543C612.192 261.037 612.069 260.447 612.069 259.774C612.069 259.104 612.192 258.513 612.439 258.001C612.689 257.487 613.037 257.087 613.483 256.8C613.932 256.513 614.456 256.369 615.056 256.369C615.411 256.369 615.757 256.429 616.096 256.548C616.436 256.665 616.743 256.852 617.016 257.111C617.292 257.366 617.509 257.703 617.668 258.121C617.83 258.538 617.911 259.048 617.911 259.651V260.089H612.784V259.178H616.773C616.773 258.825 616.702 258.513 616.56 258.24C616.421 257.964 616.222 257.747 615.963 257.588C615.708 257.429 615.407 257.349 615.06 257.349C614.679 257.349 614.35 257.442 614.071 257.626C613.796 257.811 613.583 258.053 613.432 258.351C613.282 258.649 613.206 258.97 613.206 259.314V259.974C613.206 260.44 613.287 260.837 613.449 261.163C613.614 261.487 613.843 261.734 614.135 261.905C614.428 262.072 614.769 262.156 615.158 262.156C615.411 262.156 615.641 262.121 615.848 262.05C616.056 261.976 616.233 261.866 616.381 261.722C616.532 261.577 616.648 261.395 616.73 261.176L617.821 261.423C617.722 261.764 617.549 262.064 617.301 262.322C617.057 262.578 616.752 262.778 616.385 262.923C616.022 263.065 615.611 263.136 615.154 263.136ZM620.528 259.088V263H619.386V254.273H620.52V257.499H620.605C620.756 257.152 620.987 256.878 621.3 256.676C621.612 256.472 622.024 256.369 622.536 256.369C622.982 256.369 623.372 256.46 623.707 256.642C624.045 256.821 624.307 257.094 624.491 257.46C624.679 257.827 624.773 258.287 624.773 258.841V263H623.631V258.952C623.631 258.452 623.501 258.064 623.243 257.788C622.987 257.513 622.631 257.375 622.173 257.375C621.858 257.375 621.575 257.442 621.325 257.575C621.078 257.709 620.884 257.903 620.741 258.159C620.599 258.415 620.528 258.724 620.528 259.088ZM629.257 263.136C628.654 263.136 628.127 262.996 627.676 262.714C627.224 262.43 626.873 262.036 626.623 261.53C626.373 261.024 626.248 260.435 626.248 259.761C626.248 259.08 626.373 258.484 626.623 257.976C626.873 257.467 627.224 257.072 627.676 256.791C628.127 256.51 628.654 256.369 629.257 256.369C629.859 256.369 630.386 256.51 630.838 256.791C631.289 257.072 631.64 257.467 631.89 257.976C632.14 258.484 632.265 259.08 632.265 259.761C632.265 260.435 632.14 261.024 631.89 261.53C631.64 262.036 631.289 262.43 630.838 262.714C630.386 262.996 629.859 263.136 629.257 263.136ZM629.257 262.148C629.683 262.148 630.032 262.038 630.305 261.82C630.581 261.598 630.785 261.307 630.919 260.946C631.052 260.582 631.119 260.186 631.119 259.757C631.119 259.331 631.052 258.936 630.919 258.572C630.785 258.206 630.581 257.912 630.305 257.69C630.032 257.466 629.683 257.354 629.257 257.354C628.833 257.354 628.484 257.466 628.208 257.69C627.933 257.912 627.728 258.206 627.595 258.572C627.461 258.936 627.395 259.331 627.395 259.757C627.395 260.186 627.461 260.582 627.595 260.946C627.728 261.307 627.933 261.598 628.208 261.82C628.484 262.038 628.833 262.148 629.257 262.148ZM634.884 254.273V263H633.742V254.273H634.884ZM639.123 263.132C638.586 263.132 638.11 262.996 637.695 262.723C637.281 262.447 636.955 262.057 636.719 261.551C636.484 261.045 636.366 260.443 636.366 259.744C636.366 259.045 636.484 258.445 636.719 257.942C636.955 257.436 637.282 257.048 637.7 256.778C638.117 256.506 638.596 256.369 639.136 256.369C639.553 256.369 639.886 256.439 640.133 256.578C640.38 256.714 640.572 256.872 640.708 257.051C640.844 257.23 640.95 257.381 641.023 257.503H641.104V254.273H642.242V263H641.134V261.986H641.023C640.947 262.116 640.839 262.273 640.7 262.455C640.56 262.634 640.364 262.791 640.112 262.928C639.862 263.064 639.532 263.132 639.123 263.132ZM639.332 262.139C639.718 262.139 640.043 262.038 640.308 261.837C640.575 261.632 640.778 261.349 640.917 260.989C641.056 260.625 641.126 260.205 641.126 259.727C641.126 259.256 641.058 258.842 640.921 258.487C640.785 258.132 640.583 257.857 640.316 257.661C640.049 257.462 639.721 257.362 639.332 257.362C638.928 257.362 638.592 257.467 638.322 257.678C638.052 257.885 637.849 258.168 637.712 258.526C637.579 258.881 637.512 259.281 637.512 259.727C637.512 260.179 637.58 260.588 637.717 260.955C637.856 261.318 638.059 261.607 638.326 261.82C638.596 262.033 638.931 262.139 639.332 262.139ZM646.923 263.136C646.284 263.136 645.734 262.997 645.274 262.719C644.814 262.438 644.459 262.045 644.209 261.543C643.962 261.037 643.838 260.447 643.838 259.774C643.838 259.104 643.962 258.513 644.209 258.001C644.459 257.487 644.807 257.087 645.253 256.8C645.702 256.513 646.226 256.369 646.825 256.369C647.18 256.369 647.527 256.429 647.865 256.548C648.206 256.665 648.513 256.852 648.786 257.111C649.061 257.366 649.278 257.703 649.438 258.121C649.599 258.538 649.68 259.048 649.68 259.651V260.089H644.554V259.178H648.543C648.543 258.825 648.472 258.513 648.33 258.24C648.19 257.964 647.991 257.747 647.733 257.588C647.477 257.429 647.176 257.349 646.83 257.349C646.449 257.349 646.119 257.442 645.841 257.626C645.565 257.811 645.352 258.053 645.202 258.351C645.051 258.649 644.976 258.97 644.976 259.314V259.974C644.976 260.44 645.057 260.837 645.219 261.163C645.384 261.487 645.612 261.734 645.905 261.905C646.197 262.072 646.538 262.156 646.928 262.156C647.18 262.156 647.411 262.121 647.618 262.05C647.825 261.976 648.003 261.866 648.151 261.722C648.301 261.577 648.418 261.395 648.5 261.176L649.591 261.423C649.491 261.764 649.318 262.064 649.071 262.322C648.827 262.578 648.521 262.778 648.155 262.923C647.791 263.065 647.381 263.136 646.923 263.136ZM651.156 263V256.455H652.26V257.469H652.328C652.447 257.131 652.66 256.861 652.967 256.659C653.277 256.455 653.625 256.352 654.011 256.352C654.088 256.352 654.18 256.355 654.288 256.361C654.399 256.364 654.485 256.369 654.548 256.378V257.499C654.505 257.487 654.42 257.473 654.292 257.456C654.167 257.436 654.039 257.426 653.909 257.426C653.599 257.426 653.322 257.491 653.078 257.622C652.836 257.75 652.646 257.928 652.507 258.155C652.368 258.382 652.298 258.641 652.298 258.93V263H651.156Z" fill="black"/>
<path d="M1200.2 4.45982C1200.45 4.3515 1200.57 4.05778 1200.46 3.80377C1200.35 3.54975 1200.06 3.43164 1199.8 3.53996L1200 3.99989L1200.2 4.45982ZM734.693 201.873C734.439 201.982 734.321 202.275 734.429 202.529C734.537 202.783 734.831 202.902 735.085 202.793L734.889 202.333L734.693 201.873ZM470.089 315.793C470.343 315.685 470.461 315.391 470.353 315.137C470.244 314.883 469.951 314.765 469.697 314.873L469.893 315.333L470.089 315.793ZM3.80401 513.54C3.54999 513.648 3.43188 513.942 3.5402 514.196C3.64852 514.45 3.94224 514.568 4.19625 514.46L4.00013 514L3.80401 513.54ZM4.19625 3.53996C3.94224 3.43164 3.64852 3.54975 3.5402 3.80377C3.43188 4.05778 3.54999 4.3515 3.80401 4.45982L4.00013 3.99989L4.19625 3.53996ZM468.915 202.793C469.169 202.902 469.463 202.783 469.571 202.529C469.679 202.275 469.561 201.982 469.307 201.873L469.111 202.333L468.915 202.793ZM734.303 314.873C734.049 314.765 733.755 314.883 733.647 315.137C733.539 315.391 733.657 315.685 733.911 315.793L734.107 315.333L734.303 314.873ZM1199.8 514.46C1200.06 514.568 1200.35 514.45 1200.46 514.196C1200.57 513.942 1200.45 513.648 1200.2 513.54L1200 514L1199.8 514.46ZM1200 3.99989L1199.8 3.53996L734.693 201.873L734.889 202.333L735.085 202.793L1200.2 4.45982L1200 3.99989ZM469.893 315.333L469.697 314.873L3.80401 513.54L4.00013 514L4.19625 514.46L470.089 315.793L469.893 315.333ZM4.00013 3.99989L3.80401 4.45982L468.915 202.793L469.111 202.333L469.307 201.873L4.19625 3.53996L4.00013 3.99989ZM734.107 315.333L733.911 315.793L1199.8 514.46L1200 514L1200.2 513.54L734.303 314.873L734.107 315.333Z" fill="black"/>
</g>
</g>
<defs>
<filter id="filter0_d_459_4470" x="0" y="0" width="1212" height="526" filterUnits="userSpaceOnUse" color-interpolation-filters="sRGB">
<feFlood flood-opacity="0" result="BackgroundImageFix"/>
<feColorMatrix in="SourceAlpha" type="matrix" values="0 0 0 0 0 0 0 0 0 0 0 0 0 0 0 0 0 0 127 0" result="hardAlpha"/>
<feOffset dx="4" dy="4"/>
<feGaussianBlur stdDeviation="4"/>
<feComposite in2="hardAlpha" operator="out"/>
<feColorMatrix type="matrix" values="0 0 0 0 0 0 0 0 0 0 0 0 0 0 0 0 0 0 0.08 0"/>
<feBlend mode="normal" in2="BackgroundImageFix" result="effect1_dropShadow_459_4470"/>
<feBlend mode="normal" in="SourceGraphic" in2="effect1_dropShadow_459_4470" result="shape"/>
</filter>
</defs>
</svg>
