<svg width="1212" height="526" viewBox="0 0 1212 526" fill="none" xmlns="http://www.w3.org/2000/svg">
<g clip-path="url(#clip0_459_4469)">
<g filter="url(#filter0_d_459_4469)">
<mask id="mask0_459_4469" style="mask-type:luminance" maskUnits="userSpaceOnUse" x="4" y="4" width="1196" height="510">
<path d="M1156 4H48C23.6995 4 4 23.6995 4 48V470C4 494.301 23.6995 514 48 514H1156C1180.3 514 1200 494.301 1200 470V48C1200 23.6995 1180.3 4 1156 4Z" fill="white"/>
</mask>
<g mask="url(#mask0_459_4469)">
<path d="M1156 4H48C23.6995 4 4 23.6995 4 48V470C4 494.301 23.6995 514 48 514H1156C1180.3 514 1200 494.301 1200 470V48C1200 23.6995 1180.3 4 1156 4Z" fill="#EEEEEE"/>
<path d="M551.39 254.273V263H550.201V254.273H551.39ZM553.281 263V256.455H554.38V257.499H554.466C554.602 257.143 554.822 256.866 555.126 256.668C555.433 256.469 555.801 256.369 556.23 256.369C556.664 256.369 557.028 256.469 557.321 256.668C557.616 256.866 557.839 257.143 557.99 257.499H558.058C558.22 257.155 558.47 256.881 558.808 256.676C559.146 256.472 559.551 256.369 560.022 256.369C560.61 256.369 561.091 256.554 561.463 256.923C561.838 257.293 562.025 257.857 562.025 258.615V263H560.887V258.675C560.887 258.212 560.761 257.879 560.508 257.678C560.255 257.473 559.956 257.371 559.609 257.371C559.172 257.371 558.832 257.504 558.591 257.771C558.349 258.036 558.228 258.372 558.228 258.781V263H557.082V258.585C557.082 258.222 556.966 257.929 556.733 257.707C556.502 257.483 556.204 257.371 555.838 257.371C555.585 257.371 555.35 257.437 555.135 257.571C554.922 257.705 554.75 257.889 554.619 258.125C554.488 258.358 554.423 258.628 554.423 258.935V263H553.281ZM565.71 263.149C565.295 263.149 564.919 263.071 564.581 262.915C564.246 262.759 563.979 262.533 563.78 262.237C563.584 261.939 563.486 261.575 563.486 261.146C563.486 260.774 563.558 260.47 563.703 260.234C563.851 259.996 564.047 259.808 564.291 259.672C564.536 259.536 564.807 259.433 565.105 259.365C565.403 259.297 565.706 259.244 566.013 259.207C566.408 259.156 566.727 259.116 566.972 259.088C567.219 259.06 567.399 259.013 567.513 258.947C567.626 258.882 567.683 258.77 567.683 258.611V258.577C567.683 258.182 567.574 257.875 567.355 257.656C567.136 257.438 566.808 257.328 566.371 257.328C565.916 257.328 565.56 257.428 565.301 257.626C565.043 257.825 564.861 258.043 564.756 258.278L563.682 257.972C563.838 257.574 564.055 257.259 564.334 257.026C564.615 256.79 564.929 256.622 565.276 256.523C565.625 256.42 565.982 256.369 566.345 256.369C566.581 256.369 566.841 256.398 567.125 256.455C567.409 256.509 567.679 256.615 567.935 256.774C568.193 256.93 568.406 257.162 568.574 257.469C568.741 257.773 568.825 258.173 568.825 258.67V263H567.7V262.109H567.649C567.575 262.263 567.457 262.42 567.295 262.582C567.134 262.741 566.922 262.876 566.661 262.987C566.399 263.095 566.082 263.149 565.71 263.149ZM565.923 262.186C566.301 262.186 566.621 262.112 566.882 261.964C567.143 261.817 567.342 261.625 567.479 261.389C567.618 261.153 567.688 260.902 567.688 260.635V259.753C567.642 259.801 567.551 259.845 567.415 259.885C567.278 259.925 567.122 259.959 566.946 259.987C566.773 260.016 566.602 260.041 566.435 260.064C566.27 260.084 566.134 260.101 566.026 260.115C565.773 260.149 565.538 260.203 565.322 260.277C565.109 260.351 564.938 260.46 564.807 260.605C564.679 260.747 564.615 260.939 564.615 261.18C564.615 261.513 564.739 261.764 564.986 261.935C565.233 262.102 565.545 262.186 565.923 262.186ZM573.283 265.591C572.78 265.591 572.348 265.526 571.987 265.395C571.626 265.267 571.328 265.097 571.092 264.884C570.859 264.67 570.68 264.44 570.555 264.193L571.501 263.686C571.587 263.808 571.696 263.943 571.83 264.091C571.966 264.239 572.151 264.366 572.384 264.474C572.616 264.582 572.919 264.636 573.291 264.636C573.797 264.636 574.214 264.513 574.544 264.266C574.874 264.021 575.038 263.635 575.038 263.107V261.798H574.953C574.879 261.929 574.773 262.081 574.634 262.254C574.494 262.425 574.298 262.575 574.045 262.706C573.795 262.834 573.464 262.898 573.053 262.898C572.53 262.898 572.06 262.776 571.642 262.531C571.227 262.284 570.899 261.922 570.658 261.445C570.416 260.967 570.295 260.385 570.295 259.697C570.295 259.016 570.413 258.426 570.649 257.929C570.885 257.429 571.212 257.044 571.629 256.774C572.047 256.504 572.526 256.369 573.065 256.369C573.483 256.369 573.817 256.439 574.067 256.578C574.317 256.714 574.51 256.872 574.646 257.051C574.786 257.23 574.893 257.381 574.97 257.503H575.064V256.455H576.176V263.166C576.176 263.729 576.047 264.188 575.788 264.543C575.533 264.901 575.186 265.165 574.749 265.335C574.311 265.506 573.822 265.591 573.283 265.591ZM573.261 261.918C573.648 261.918 573.973 261.83 574.237 261.653C574.504 261.474 574.707 261.217 574.847 260.882C574.986 260.547 575.055 260.146 575.055 259.68C575.055 259.223 574.987 258.821 574.851 258.474C574.714 258.128 574.513 257.857 574.246 257.661C573.979 257.462 573.651 257.362 573.261 257.362C572.858 257.362 572.521 257.466 572.251 257.673C571.982 257.881 571.778 258.159 571.642 258.509C571.509 258.858 571.442 259.249 571.442 259.68C571.442 260.124 571.51 260.513 571.646 260.848C571.786 261.183 571.989 261.446 572.256 261.636C572.526 261.824 572.861 261.918 573.261 261.918ZM580.736 263.136C580.097 263.136 579.547 262.997 579.087 262.719C578.626 262.438 578.271 262.045 578.021 261.543C577.774 261.037 577.651 260.447 577.651 259.774C577.651 259.104 577.774 258.513 578.021 258.001C578.271 257.487 578.619 257.087 579.065 256.8C579.514 256.513 580.038 256.369 580.638 256.369C580.993 256.369 581.339 256.429 581.678 256.548C582.018 256.665 582.325 256.852 582.598 257.111C582.874 257.366 583.091 257.703 583.25 258.121C583.412 258.538 583.493 259.048 583.493 259.651V260.089H578.366V259.178H582.355C582.355 258.825 582.284 258.513 582.142 258.24C582.003 257.964 581.804 257.747 581.545 257.588C581.29 257.429 580.989 257.349 580.642 257.349C580.261 257.349 579.932 257.442 579.653 257.626C579.378 257.811 579.165 258.053 579.014 258.351C578.864 258.649 578.788 258.97 578.788 259.314V259.974C578.788 260.44 578.869 260.837 579.031 261.163C579.196 261.487 579.425 261.734 579.717 261.905C580.01 262.072 580.351 262.156 580.74 262.156C580.993 262.156 581.223 262.121 581.43 262.05C581.638 261.976 581.815 261.866 581.963 261.722C582.114 261.577 582.23 261.395 582.312 261.176L583.403 261.423C583.304 261.764 583.131 262.064 582.884 262.322C582.639 262.578 582.334 262.778 581.967 262.923C581.604 263.065 581.193 263.136 580.736 263.136ZM588.369 263V254.273H591.403C592.082 254.273 592.642 254.396 593.082 254.643C593.525 254.891 593.855 255.226 594.071 255.649C594.287 256.07 594.395 256.543 594.395 257.068C594.395 257.594 594.287 258.068 594.071 258.491C593.855 258.915 593.527 259.251 593.086 259.501C592.646 259.749 592.086 259.872 591.407 259.872H589.281V258.845H591.331C591.779 258.845 592.142 258.767 592.417 258.611C592.693 258.455 592.893 258.243 593.018 257.976C593.146 257.709 593.21 257.406 593.21 257.068C593.21 256.727 593.146 256.425 593.018 256.161C592.893 255.893 592.691 255.685 592.413 255.534C592.135 255.381 591.768 255.304 591.314 255.304H589.558V263H588.369ZM597.032 254.273V263H595.89V254.273H597.032ZM600.726 263.149C600.311 263.149 599.935 263.071 599.597 262.915C599.261 262.759 598.994 262.533 598.795 262.237C598.599 261.939 598.501 261.575 598.501 261.146C598.501 260.774 598.574 260.47 598.719 260.234C598.866 259.996 599.063 259.808 599.307 259.672C599.551 259.536 599.822 259.433 600.121 259.365C600.419 259.297 600.722 259.244 601.028 259.207C601.423 259.156 601.743 259.116 601.987 259.088C602.234 259.06 602.415 259.013 602.528 258.947C602.642 258.882 602.699 258.77 602.699 258.611V258.577C602.699 258.182 602.589 257.875 602.371 257.656C602.152 257.438 601.824 257.328 601.386 257.328C600.932 257.328 600.575 257.428 600.317 257.626C600.058 257.825 599.876 258.043 599.771 258.278L598.697 257.972C598.854 257.574 599.071 257.259 599.349 257.026C599.631 256.79 599.945 256.622 600.291 256.523C600.641 256.42 600.997 256.369 601.361 256.369C601.597 256.369 601.857 256.398 602.141 256.455C602.425 256.509 602.695 256.615 602.95 256.774C603.209 256.93 603.422 257.162 603.589 257.469C603.757 257.773 603.841 258.173 603.841 258.67V263H602.716V262.109H602.665C602.591 262.263 602.473 262.42 602.311 262.582C602.149 262.741 601.938 262.876 601.676 262.987C601.415 263.095 601.098 263.149 600.726 263.149ZM600.939 262.186C601.317 262.186 601.636 262.112 601.898 261.964C602.159 261.817 602.358 261.625 602.494 261.389C602.634 261.153 602.703 260.902 602.703 260.635V259.753C602.658 259.801 602.567 259.845 602.43 259.885C602.294 259.925 602.138 259.959 601.962 259.987C601.788 260.016 601.618 260.041 601.45 260.064C601.286 260.084 601.149 260.101 601.041 260.115C600.788 260.149 600.554 260.203 600.338 260.277C600.125 260.351 599.953 260.46 599.822 260.605C599.695 260.747 599.631 260.939 599.631 261.18C599.631 261.513 599.754 261.764 600.001 261.935C600.249 262.102 600.561 262.186 600.939 262.186ZM608.315 263.136C607.693 263.136 607.156 262.991 606.705 262.702C606.256 262.412 605.911 262.013 605.669 261.504C605.428 260.996 605.307 260.415 605.307 259.761C605.307 259.094 605.43 258.506 605.678 257.997C605.928 257.489 606.276 257.091 606.722 256.804C607.17 256.514 607.696 256.369 608.298 256.369C608.778 256.369 609.207 256.457 609.585 256.634C609.966 256.81 610.276 257.057 610.514 257.375C610.753 257.693 610.898 258.065 610.949 258.491H609.824C609.753 258.187 609.589 257.923 609.334 257.699C609.081 257.472 608.743 257.358 608.32 257.358C607.945 257.358 607.616 257.456 607.335 257.652C607.057 257.845 606.839 258.119 606.683 258.474C606.53 258.83 606.453 259.247 606.453 259.727C606.453 260.219 606.53 260.645 606.683 261.006C606.837 261.366 607.053 261.646 607.331 261.845C607.612 262.044 607.942 262.143 608.32 262.143C608.572 262.143 608.801 262.098 609.006 262.007C609.21 261.916 609.384 261.787 609.526 261.619C609.668 261.449 609.767 261.246 609.824 261.01H610.949C610.895 261.413 610.754 261.776 610.527 262.097C610.303 262.418 610.003 262.672 609.628 262.859C609.253 263.044 608.815 263.136 608.315 263.136ZM615.154 263.136C614.515 263.136 613.965 262.997 613.505 262.719C613.044 262.438 612.689 262.045 612.439 261.543C612.192 261.037 612.069 260.447 612.069 259.774C612.069 259.104 612.192 258.513 612.439 258.001C612.689 257.487 613.037 257.087 613.483 256.8C613.932 256.513 614.456 256.369 615.056 256.369C615.411 256.369 615.757 256.429 616.096 256.548C616.436 256.665 616.743 256.852 617.016 257.111C617.292 257.366 617.509 257.703 617.668 258.121C617.83 258.538 617.911 259.048 617.911 259.651V260.089H612.784V259.178H616.773C616.773 258.825 616.702 258.513 616.56 258.24C616.421 257.964 616.222 257.747 615.963 257.588C615.708 257.429 615.407 257.349 615.06 257.349C614.679 257.349 614.35 257.442 614.071 257.626C613.796 257.811 613.583 258.053 613.432 258.351C613.282 258.649 613.206 258.97 613.206 259.314V259.974C613.206 260.44 613.287 260.837 613.449 261.163C613.614 261.487 613.843 261.734 614.135 261.905C614.428 262.072 614.769 262.156 615.158 262.156C615.411 262.156 615.641 262.121 615.848 262.05C616.056 261.976 616.233 261.866 616.381 261.722C616.532 261.577 616.648 261.395 616.73 261.176L617.821 261.423C617.722 261.764 617.549 262.064 617.301 262.322C617.057 262.578 616.752 262.778 616.385 262.923C616.022 263.065 615.611 263.136 615.154 263.136ZM620.528 259.088V263H619.386V254.273H620.52V257.499H620.605C620.756 257.152 620.987 256.878 621.3 256.676C621.612 256.472 622.024 256.369 622.536 256.369C622.982 256.369 623.372 256.46 623.707 256.642C624.045 256.821 624.307 257.094 624.491 257.46C624.679 257.827 624.773 258.287 624.773 258.841V263H623.631V258.952C623.631 258.452 623.501 258.064 623.243 257.788C622.987 257.513 622.631 257.375 622.173 257.375C621.858 257.375 621.575 257.442 621.325 257.575C621.078 257.709 620.884 257.903 620.741 258.159C620.599 258.415 620.528 258.724 620.528 259.088ZM629.257 263.136C628.654 263.136 628.127 262.996 627.676 262.714C627.224 262.43 626.873 262.036 626.623 261.53C626.373 261.024 626.248 260.435 626.248 259.761C626.248 259.08 626.373 258.484 626.623 257.976C626.873 257.467 627.224 257.072 627.676 256.791C628.127 256.51 628.654 256.369 629.257 256.369C629.859 256.369 630.386 256.51 630.838 256.791C631.289 257.072 631.64 257.467 631.89 257.976C632.14 258.484 632.265 259.08 632.265 259.761C632.265 260.435 632.14 261.024 631.89 261.53C631.64 262.036 631.289 262.43 630.838 262.714C630.386 262.996 629.859 263.136 629.257 263.136ZM629.257 262.148C629.683 262.148 630.032 262.038 630.305 261.82C630.581 261.598 630.785 261.307 630.919 260.946C631.052 260.582 631.119 260.186 631.119 259.757C631.119 259.331 631.052 258.936 630.919 258.572C630.785 258.206 630.581 257.912 630.305 257.69C630.032 257.466 629.683 257.354 629.257 257.354C628.833 257.354 628.484 257.466 628.208 257.69C627.933 257.912 627.728 258.206 627.595 258.572C627.461 258.936 627.395 259.331 627.395 259.757C627.395 260.186 627.461 260.582 627.595 260.946C627.728 261.307 627.933 261.598 628.208 261.82C628.484 262.038 628.833 262.148 629.257 262.148ZM634.884 254.273V263H633.742V254.273H634.884ZM639.123 263.132C638.586 263.132 638.11 262.996 637.695 262.723C637.281 262.447 636.955 262.057 636.719 261.551C636.484 261.045 636.366 260.443 636.366 259.744C636.366 259.045 636.484 258.445 636.719 257.942C636.955 257.436 637.282 257.048 637.7 256.778C638.117 256.506 638.596 256.369 639.136 256.369C639.553 256.369 639.886 256.439 640.133 256.578C640.38 256.714 640.572 256.872 640.708 257.051C640.844 257.23 640.95 257.381 641.023 257.503H641.104V254.273H642.242V263H641.134V261.986H641.023C640.947 262.116 640.839 262.273 640.7 262.455C640.56 262.634 640.364 262.791 640.112 262.928C639.862 263.064 639.532 263.132 639.123 263.132ZM639.332 262.139C639.718 262.139 640.043 262.038 640.308 261.837C640.575 261.632 640.778 261.349 640.917 260.989C641.056 260.625 641.126 260.205 641.126 259.727C641.126 259.256 641.058 258.842 640.921 258.487C640.785 258.132 640.583 257.857 640.316 257.661C640.049 257.462 639.721 257.362 639.332 257.362C638.928 257.362 638.592 257.467 638.322 257.678C638.052 257.885 637.849 258.168 637.712 258.526C637.579 258.881 637.512 259.281 637.512 259.727C637.512 260.179 637.58 260.588 637.717 260.955C637.856 261.318 638.059 261.607 638.326 261.82C638.596 262.033 638.931 262.139 639.332 262.139ZM646.923 263.136C646.284 263.136 645.734 262.997 645.274 262.719C644.814 262.438 644.459 262.045 644.209 261.543C643.962 261.037 643.838 260.447 643.838 259.774C643.838 259.104 643.962 258.513 644.209 258.001C644.459 257.487 644.807 257.087 645.253 256.8C645.702 256.513 646.226 256.369 646.825 256.369C647.18 256.369 647.527 256.429 647.865 256.548C648.206 256.665 648.513 256.852 648.786 257.111C649.061 257.366 649.278 257.703 649.438 258.121C649.599 258.538 649.68 259.048 649.68 259.651V260.089H644.554V259.178H648.543C648.543 258.825 648.472 258.513 648.33 258.24C648.19 257.964 647.991 257.747 647.733 257.588C647.477 257.429 647.176 257.349 646.83 257.349C646.449 257.349 646.119 257.442 645.841 257.626C645.565 257.811 645.352 258.053 645.202 258.351C645.051 258.649 644.976 258.97 644.976 259.314V259.974C644.976 260.44 645.057 260.837 645.219 261.163C645.384 261.487 645.612 261.734 645.905 261.905C646.197 262.072 646.538 262.156 646.928 262.156C647.18 262.156 647.411 262.121 647.618 262.05C647.825 261.976 648.003 261.866 648.151 261.722C648.301 261.577 648.418 261.395 648.5 261.176L649.591 261.423C649.491 261.764 649.318 262.064 649.071 262.322C648.827 262.578 648.521 262.778 648.155 262.923C647.791 263.065 647.381 263.136 646.923 263.136ZM651.156 263V256.455H652.26V257.469H652.328C652.447 257.131 652.66 256.861 652.967 256.659C653.277 256.455 653.625 256.352 654.011 256.352C654.088 256.352 654.18 256.355 654.288 256.361C654.399 256.364 654.485 256.369 654.548 256.378V257.499C654.505 257.487 654.42 257.473 654.292 257.456C654.167 257.436 654.039 257.426 653.909 257.426C653.599 257.426 653.322 257.491 653.078 257.622C652.836 257.75 652.646 257.928 652.507 258.155C652.368 258.382 652.298 258.641 652.298 258.93V263H651.156Z" fill="black"/>
<path d="M1200.2 4.45982C1200.45 4.3515 1200.57 4.05778 1200.46 3.80377C1200.35 3.54975 1200.06 3.43164 1199.8 3.53996L1200 3.99989L1200.2 4.45982ZM734.693 201.873C734.439 201.982 734.321 202.275 734.429 202.529C734.537 202.783 734.831 202.902 735.085 202.793L734.889 202.333L734.693 201.873ZM470.089 315.793C470.343 315.685 470.461 315.391 470.353 315.137C470.244 314.883 469.951 314.765 469.697 314.873L469.893 315.333L470.089 315.793ZM3.80401 513.54C3.54999 513.648 3.43188 513.942 3.5402 514.196C3.64852 514.45 3.94224 514.568 4.19625 514.46L4.00013 514L3.80401 513.54ZM4.19625 3.53996C3.94224 3.43164 3.64852 3.54975 3.5402 3.80377C3.43188 4.05778 3.54999 4.3515 3.80401 4.45982L4.00013 3.99989L4.19625 3.53996ZM468.915 202.793C469.169 202.902 469.463 202.783 469.571 202.529C469.679 202.275 469.561 201.982 469.307 201.873L469.111 202.333L468.915 202.793ZM734.303 314.873C734.049 314.765 733.755 314.883 733.647 315.137C733.539 315.391 733.657 315.685 733.911 315.793L734.107 315.333L734.303 314.873ZM1199.8 514.46C1200.06 514.568 1200.35 514.45 1200.46 514.196C1200.57 513.942 1200.45 513.648 1200.2 513.54L1200 514L1199.8 514.46ZM1200 3.99989L1199.8 3.53996L734.693 201.873L734.889 202.333L735.085 202.793L1200.2 4.45982L1200 3.99989ZM469.893 315.333L469.697 314.873L3.80401 513.54L4.00013 514L4.19625 514.46L470.089 315.793L469.893 315.333ZM4.00013 3.99989L3.80401 4.45982L468.915 202.793L469.111 202.333L469.307 201.873L4.19625 3.53996L4.00013 3.99989ZM734.107 315.333L733.911 315.793L1199.8 514.46L1200 514L1200.2 513.54L734.303 314.873L734.107 315.333Z" fill="black"/>
</g>
</g>
<path d="M546.722 451.364H548.484V459.017C548.484 459.831 548.292 460.553 547.91 461.182C547.527 461.807 546.989 462.299 546.296 462.659C545.603 463.015 544.79 463.193 543.859 463.193C542.931 463.193 542.12 463.015 541.427 462.659C540.734 462.299 540.196 461.807 539.813 461.182C539.431 460.553 539.239 459.831 539.239 459.017V451.364H540.995V458.875C540.995 459.402 541.111 459.869 541.342 460.278C541.576 460.688 541.908 461.009 542.336 461.244C542.764 461.475 543.272 461.591 543.859 461.591C544.45 461.591 544.959 461.475 545.387 461.244C545.819 461.009 546.148 460.688 546.376 460.278C546.607 459.869 546.722 459.402 546.722 458.875V451.364ZM550.9 466.273V454.273H552.559V455.688H552.701C552.799 455.506 552.942 455.295 553.127 455.057C553.313 454.818 553.57 454.61 553.9 454.432C554.229 454.25 554.665 454.159 555.207 454.159C555.911 454.159 556.54 454.337 557.093 454.693C557.646 455.049 558.08 455.562 558.394 456.233C558.712 456.903 558.871 457.71 558.871 458.653C558.871 459.597 558.714 460.405 558.4 461.08C558.085 461.75 557.654 462.267 557.104 462.631C556.555 462.991 555.928 463.17 555.224 463.17C554.693 463.17 554.26 463.081 553.923 462.903C553.589 462.725 553.328 462.517 553.138 462.278C552.949 462.04 552.803 461.828 552.701 461.642H552.599V466.273H550.9ZM552.565 458.636C552.565 459.25 552.654 459.788 552.832 460.25C553.01 460.712 553.267 461.074 553.604 461.335C553.942 461.593 554.354 461.722 554.843 461.722C555.351 461.722 555.775 461.587 556.116 461.318C556.457 461.045 556.714 460.676 556.888 460.21C557.067 459.744 557.156 459.22 557.156 458.636C557.156 458.061 557.068 457.544 556.894 457.085C556.724 456.627 556.466 456.265 556.121 456C555.781 455.735 555.354 455.602 554.843 455.602C554.351 455.602 553.934 455.729 553.593 455.983C553.256 456.237 553 456.591 552.826 457.045C552.652 457.5 552.565 458.03 552.565 458.636ZM562.474 451.364V463H560.775V451.364H562.474ZM568.435 463.176C567.617 463.176 566.903 462.989 566.293 462.614C565.683 462.239 565.21 461.714 564.873 461.04C564.536 460.366 564.367 459.578 564.367 458.676C564.367 457.771 564.536 456.979 564.873 456.301C565.21 455.623 565.683 455.097 566.293 454.722C566.903 454.347 567.617 454.159 568.435 454.159C569.254 454.159 569.968 454.347 570.577 454.722C571.187 455.097 571.661 455.623 571.998 456.301C572.335 456.979 572.504 457.771 572.504 458.676C572.504 459.578 572.335 460.366 571.998 461.04C571.661 461.714 571.187 462.239 570.577 462.614C569.968 462.989 569.254 463.176 568.435 463.176ZM568.441 461.75C568.971 461.75 569.411 461.61 569.759 461.33C570.108 461.049 570.365 460.676 570.532 460.21C570.702 459.744 570.788 459.231 570.788 458.67C570.788 458.114 570.702 457.602 570.532 457.136C570.365 456.667 570.108 456.29 569.759 456.006C569.411 455.722 568.971 455.58 568.441 455.58C567.907 455.58 567.464 455.722 567.112 456.006C566.763 456.29 566.504 456.667 566.333 457.136C566.166 457.602 566.083 458.114 566.083 458.67C566.083 459.231 566.166 459.744 566.333 460.21C566.504 460.676 566.763 461.049 567.112 461.33C567.464 461.61 567.907 461.75 568.441 461.75ZM576.94 463.193C576.387 463.193 575.887 463.091 575.44 462.886C574.993 462.678 574.638 462.377 574.377 461.983C574.12 461.589 573.991 461.106 573.991 460.534C573.991 460.042 574.085 459.636 574.275 459.318C574.464 459 574.72 458.748 575.042 458.562C575.364 458.377 575.724 458.237 576.121 458.142C576.519 458.047 576.924 457.975 577.337 457.926C577.86 457.866 578.284 457.816 578.61 457.778C578.936 457.737 579.173 457.67 579.32 457.58C579.468 457.489 579.542 457.341 579.542 457.136V457.097C579.542 456.6 579.402 456.216 579.121 455.943C578.845 455.67 578.432 455.534 577.883 455.534C577.311 455.534 576.86 455.661 576.531 455.915C576.205 456.165 575.979 456.443 575.854 456.75L574.258 456.386C574.447 455.856 574.724 455.428 575.087 455.102C575.455 454.773 575.877 454.534 576.354 454.386C576.832 454.235 577.334 454.159 577.86 454.159C578.209 454.159 578.578 454.201 578.968 454.284C579.362 454.364 579.729 454.511 580.07 454.727C580.415 454.943 580.697 455.252 580.917 455.653C581.137 456.051 581.246 456.568 581.246 457.205V463H579.587V461.807H579.519C579.409 462.027 579.245 462.242 579.025 462.455C578.805 462.667 578.523 462.843 578.178 462.983C577.834 463.123 577.421 463.193 576.94 463.193ZM577.309 461.83C577.779 461.83 578.18 461.737 578.513 461.551C578.851 461.366 579.106 461.123 579.281 460.824C579.459 460.521 579.548 460.197 579.548 459.852V458.727C579.487 458.788 579.37 458.845 579.195 458.898C579.025 458.947 578.83 458.991 578.61 459.028C578.39 459.062 578.176 459.095 577.968 459.125C577.76 459.152 577.585 459.174 577.445 459.193C577.116 459.235 576.815 459.305 576.542 459.403C576.273 459.502 576.057 459.644 575.894 459.83C575.735 460.011 575.656 460.254 575.656 460.557C575.656 460.977 575.811 461.295 576.121 461.511C576.432 461.723 576.828 461.83 577.309 461.83ZM586.776 463.17C586.072 463.17 585.443 462.991 584.89 462.631C584.341 462.267 583.909 461.75 583.594 461.08C583.284 460.405 583.129 459.597 583.129 458.653C583.129 457.71 583.286 456.903 583.6 456.233C583.918 455.562 584.354 455.049 584.907 454.693C585.46 454.337 586.087 454.159 586.788 454.159C587.329 454.159 587.765 454.25 588.094 454.432C588.428 454.61 588.685 454.818 588.867 455.057C589.053 455.295 589.197 455.506 589.299 455.688H589.401V451.364H591.1V463H589.441V461.642H589.299C589.197 461.828 589.049 462.04 588.856 462.278C588.666 462.517 588.405 462.725 588.072 462.903C587.738 463.081 587.307 463.17 586.776 463.17ZM587.151 461.722C587.64 461.722 588.053 461.593 588.39 461.335C588.731 461.074 588.988 460.712 589.163 460.25C589.341 459.788 589.43 459.25 589.43 458.636C589.43 458.03 589.343 457.5 589.168 457.045C588.994 456.591 588.738 456.237 588.401 455.983C588.064 455.729 587.647 455.602 587.151 455.602C586.64 455.602 586.214 455.735 585.873 456C585.532 456.265 585.274 456.627 585.1 457.085C584.93 457.544 584.844 458.061 584.844 458.636C584.844 459.22 584.932 459.744 585.106 460.21C585.28 460.676 585.538 461.045 585.879 461.318C586.223 461.587 586.647 461.722 587.151 461.722ZM597.896 463V451.364H599.651V456.92H599.793L604.674 451.364H606.884L602.191 456.602L606.901 463H604.788L601.026 457.801L599.651 459.381V463H597.896ZM610.924 463.193C610.371 463.193 609.871 463.091 609.424 462.886C608.977 462.678 608.623 462.377 608.362 461.983C608.104 461.589 607.975 461.106 607.975 460.534C607.975 460.042 608.07 459.636 608.259 459.318C608.449 459 608.704 458.748 609.026 458.562C609.348 458.377 609.708 458.237 610.106 458.142C610.504 458.047 610.909 457.975 611.322 457.926C611.844 457.866 612.269 457.816 612.594 457.778C612.92 457.737 613.157 457.67 613.305 457.58C613.452 457.489 613.526 457.341 613.526 457.136V457.097C613.526 456.6 613.386 456.216 613.106 455.943C612.829 455.67 612.416 455.534 611.867 455.534C611.295 455.534 610.844 455.661 610.515 455.915C610.189 456.165 609.964 456.443 609.839 456.75L608.242 456.386C608.432 455.856 608.708 455.428 609.072 455.102C609.439 454.773 609.862 454.534 610.339 454.386C610.816 454.235 611.318 454.159 611.844 454.159C612.193 454.159 612.562 454.201 612.952 454.284C613.346 454.364 613.714 454.511 614.055 454.727C614.399 454.943 614.682 455.252 614.901 455.653C615.121 456.051 615.231 456.568 615.231 457.205V463H613.572V461.807H613.504C613.394 462.027 613.229 462.242 613.009 462.455C612.79 462.667 612.507 462.843 612.163 462.983C611.818 463.123 611.405 463.193 610.924 463.193ZM611.293 461.83C611.763 461.83 612.165 461.737 612.498 461.551C612.835 461.366 613.091 461.123 613.265 460.824C613.443 460.521 613.532 460.197 613.532 459.852V458.727C613.471 458.788 613.354 458.845 613.18 458.898C613.009 458.947 612.814 458.991 612.594 459.028C612.375 459.062 612.161 459.095 611.952 459.125C611.744 459.152 611.57 459.174 611.43 459.193C611.1 459.235 610.799 459.305 610.526 459.403C610.257 459.502 610.041 459.644 609.879 459.83C609.719 460.011 609.64 460.254 609.64 460.557C609.64 460.977 609.795 461.295 610.106 461.511C610.416 461.723 610.812 461.83 611.293 461.83ZM617.494 463V454.273H619.136V455.659H619.227C619.386 455.189 619.666 454.82 620.067 454.551C620.473 454.278 620.931 454.142 621.442 454.142C621.549 454.142 621.674 454.146 621.817 454.153C621.965 454.161 622.081 454.17 622.164 454.182V455.807C622.096 455.788 621.975 455.767 621.8 455.744C621.626 455.718 621.452 455.705 621.278 455.705C620.876 455.705 620.518 455.79 620.204 455.96C619.893 456.127 619.647 456.36 619.465 456.659C619.283 456.955 619.192 457.292 619.192 457.67V463H617.494ZM624.974 466.273C624.72 466.273 624.489 466.252 624.281 466.21C624.072 466.172 623.917 466.131 623.815 466.085L624.224 464.693C624.534 464.777 624.811 464.813 625.053 464.801C625.296 464.79 625.51 464.699 625.695 464.528C625.885 464.358 626.051 464.08 626.195 463.693L626.406 463.114L623.212 454.273H625.031L627.241 461.045H627.332L629.542 454.273H631.366L627.769 464.165C627.603 464.619 627.39 465.004 627.133 465.318C626.875 465.636 626.568 465.875 626.212 466.034C625.856 466.193 625.443 466.273 624.974 466.273ZM635.252 463.193C634.699 463.193 634.199 463.091 633.752 462.886C633.305 462.678 632.951 462.377 632.69 461.983C632.432 461.589 632.303 461.106 632.303 460.534C632.303 460.042 632.398 459.636 632.587 459.318C632.777 459 633.032 458.748 633.354 458.562C633.676 458.377 634.036 458.237 634.434 458.142C634.832 458.047 635.237 457.975 635.65 457.926C636.173 457.866 636.597 457.816 636.923 457.778C637.248 457.737 637.485 457.67 637.633 457.58C637.781 457.489 637.854 457.341 637.854 457.136V457.097C637.854 456.6 637.714 456.216 637.434 455.943C637.157 455.67 636.745 455.534 636.195 455.534C635.623 455.534 635.173 455.661 634.843 455.915C634.517 456.165 634.292 456.443 634.167 456.75L632.57 456.386C632.76 455.856 633.036 455.428 633.4 455.102C633.767 454.773 634.19 454.534 634.667 454.386C635.144 454.235 635.646 454.159 636.173 454.159C636.521 454.159 636.89 454.201 637.281 454.284C637.674 454.364 638.042 454.511 638.383 454.727C638.728 454.943 639.01 455.252 639.229 455.653C639.449 456.051 639.559 456.568 639.559 457.205V463H637.9V461.807H637.832C637.722 462.027 637.557 462.242 637.337 462.455C637.118 462.667 636.835 462.843 636.491 462.983C636.146 463.123 635.733 463.193 635.252 463.193ZM635.621 461.83C636.091 461.83 636.493 461.737 636.826 461.551C637.163 461.366 637.419 461.123 637.593 460.824C637.771 460.521 637.86 460.197 637.86 459.852V458.727C637.799 458.788 637.682 458.845 637.508 458.898C637.337 458.947 637.142 458.991 636.923 459.028C636.703 459.062 636.489 459.095 636.281 459.125C636.072 459.152 635.898 459.174 635.758 459.193C635.428 459.235 635.127 459.305 634.854 459.403C634.585 459.502 634.37 459.644 634.207 459.83C634.048 460.011 633.968 460.254 633.968 460.557C633.968 460.977 634.123 461.295 634.434 461.511C634.745 461.723 635.14 461.83 635.621 461.83ZM641.822 463V454.273H643.452V455.693H643.56C643.742 455.212 644.04 454.837 644.452 454.568C644.865 454.295 645.36 454.159 645.935 454.159C646.519 454.159 647.007 454.295 647.401 454.568C647.799 454.841 648.093 455.216 648.282 455.693H648.373C648.581 455.227 648.913 454.856 649.367 454.58C649.822 454.299 650.363 454.159 650.992 454.159C651.784 454.159 652.43 454.407 652.93 454.903C653.433 455.4 653.685 456.148 653.685 457.148V463H651.987V457.307C651.987 456.716 651.826 456.288 651.504 456.023C651.182 455.758 650.797 455.625 650.35 455.625C649.797 455.625 649.367 455.795 649.06 456.136C648.754 456.473 648.6 456.907 648.6 457.438V463H646.907V457.199C646.907 456.725 646.759 456.345 646.464 456.057C646.168 455.769 645.784 455.625 645.31 455.625C644.988 455.625 644.691 455.71 644.418 455.881C644.149 456.047 643.932 456.28 643.765 456.58C643.602 456.879 643.521 457.225 643.521 457.619V463H641.822ZM661.491 459.381V454.273H663.195V463H661.525V461.489H661.434C661.233 461.955 660.911 462.343 660.468 462.653C660.029 462.96 659.481 463.114 658.826 463.114C658.265 463.114 657.769 462.991 657.337 462.744C656.909 462.494 656.572 462.125 656.326 461.636C656.084 461.148 655.962 460.544 655.962 459.824V454.273H657.661V459.619C657.661 460.214 657.826 460.687 658.156 461.04C658.485 461.392 658.913 461.568 659.44 461.568C659.758 461.568 660.074 461.489 660.388 461.33C660.707 461.17 660.97 460.93 661.178 460.608C661.39 460.286 661.495 459.877 661.491 459.381ZM667.62 451.364L667.472 459.653H665.898L665.751 451.364H667.62ZM666.688 463.108C666.374 463.108 666.105 462.998 665.881 462.778C665.658 462.555 665.548 462.286 665.552 461.972C665.548 461.661 665.658 461.396 665.881 461.176C666.105 460.953 666.374 460.841 666.688 460.841C666.995 460.841 667.26 460.953 667.484 461.176C667.707 461.396 667.821 461.661 667.825 461.972C667.821 462.18 667.766 462.371 667.66 462.545C667.558 462.716 667.421 462.852 667.251 462.955C667.08 463.057 666.893 463.108 666.688 463.108Z" fill="white"/>
</g>
<defs>
<filter id="filter0_d_459_4469" x="0" y="0" width="1212" height="526" filterUnits="userSpaceOnUse" color-interpolation-filters="sRGB">
<feFlood flood-opacity="0" result="BackgroundImageFix"/>
<feColorMatrix in="SourceAlpha" type="matrix" values="0 0 0 0 0 0 0 0 0 0 0 0 0 0 0 0 0 0 127 0" result="hardAlpha"/>
<feOffset dx="4" dy="4"/>
<feGaussianBlur stdDeviation="4"/>
<feComposite in2="hardAlpha" operator="out"/>
<feColorMatrix type="matrix" values="0 0 0 0 0 0 0 0 0 0 0 0 0 0 0 0 0 0 0.08 0"/>
<feBlend mode="normal" in2="BackgroundImageFix" result="effect1_dropShadow_459_4469"/>
<feBlend mode="normal" in="SourceGraphic" in2="effect1_dropShadow_459_4469" result="shape"/>
</filter>
<clipPath id="clip0_459_4469">
<rect width="1212" height="526" fill="white"/>
</clipPath>
</defs>
</svg>
