<svg width="180" height="180" viewBox="0 0 180 180" fill="none" xmlns="http://www.w3.org/2000/svg">
<path d="M39.3899 85.2727V94H38.201V85.2727H39.3899ZM41.2809 94V87.4545H42.3803V88.4986H42.4656C42.6019 88.1435 42.8221 87.8665 43.1261 87.6676C43.4329 87.4688 43.8008 87.3693 44.2298 87.3693C44.6644 87.3693 45.0281 87.4688 45.3207 87.6676C45.6161 87.8665 45.8391 88.1435 45.9897 88.4986H46.0579C46.2198 88.1548 46.4698 87.8807 46.8079 87.6761C47.146 87.4716 47.5508 87.3693 48.0224 87.3693C48.6104 87.3693 49.0906 87.554 49.4627 87.9233C49.8377 88.2926 50.0252 88.8565 50.0252 89.6151V94H48.8874V89.6747C48.8874 89.2116 48.761 88.8793 48.5082 88.6776C48.2553 88.473 47.9556 88.3707 47.609 88.3707C47.1715 88.3707 46.832 88.5043 46.5906 88.7713C46.3491 89.0355 46.2283 89.3722 46.2283 89.7812V94H45.082V89.5852C45.082 89.2216 44.9656 88.929 44.7326 88.7074C44.5025 88.483 44.2042 88.3707 43.8377 88.3707C43.5849 88.3707 43.3505 88.4375 43.1346 88.571C42.9215 88.7045 42.7496 88.8892 42.619 89.125C42.4883 89.358 42.4229 89.6278 42.4229 89.9347V94H41.2809ZM53.7102 94.1491C53.2955 94.1491 52.919 94.071 52.581 93.9148C52.2457 93.7585 51.9787 93.5327 51.7798 93.2372C51.5838 92.9389 51.4858 92.5753 51.4858 92.1463C51.4858 91.7741 51.5582 91.4702 51.7031 91.2344C51.8509 90.9957 52.0469 90.8082 52.2912 90.6719C52.5355 90.5355 52.8068 90.4332 53.1051 90.3651C53.4034 90.2969 53.706 90.2443 54.0128 90.2074C54.4077 90.1562 54.7273 90.1165 54.9716 90.0881C55.2188 90.0597 55.3991 90.0128 55.5128 89.9474C55.6264 89.8821 55.6832 89.7699 55.6832 89.6108V89.5767C55.6832 89.1818 55.5739 88.875 55.3551 88.6562C55.1364 88.4375 54.8082 88.3281 54.3707 88.3281C53.9162 88.3281 53.5597 88.4276 53.3011 88.6264C53.0426 88.8253 52.8608 89.0426 52.7557 89.2784L51.6818 88.9716C51.8381 88.5739 52.0554 88.2585 52.3338 88.0256C52.6151 87.7898 52.929 87.6222 53.2756 87.5227C53.625 87.4205 53.9815 87.3693 54.3452 87.3693C54.581 87.3693 54.8409 87.3977 55.125 87.4545C55.4091 87.5085 55.679 87.6151 55.9347 87.7741C56.1932 87.9304 56.4063 88.1619 56.5739 88.4688C56.7415 88.7727 56.8253 89.1733 56.8253 89.6705V94H55.7003V93.1094H55.6491C55.5753 93.2628 55.4574 93.4205 55.2955 93.5824C55.1335 93.7415 54.9219 93.8764 54.6605 93.9872C54.3991 94.0952 54.0824 94.1491 53.7102 94.1491ZM53.9233 93.1861C54.3011 93.1861 54.6207 93.1122 54.8821 92.9645C55.1435 92.8168 55.3423 92.625 55.4787 92.3892C55.6179 92.1534 55.6875 91.902 55.6875 91.6349V90.7528C55.642 90.8011 55.5511 90.8452 55.4148 90.8849C55.2784 90.9247 55.1222 90.9588 54.946 90.9872C54.7727 91.0156 54.6023 91.0412 54.4347 91.0639C54.2699 91.0838 54.1335 91.1009 54.0256 91.1151C53.7727 91.1491 53.5384 91.2031 53.3224 91.277C53.1094 91.3509 52.9375 91.4602 52.8068 91.6051C52.679 91.7472 52.6151 91.9389 52.6151 92.1804C52.6151 92.5128 52.7386 92.7642 52.9858 92.9347C53.233 93.1023 53.5455 93.1861 53.9233 93.1861ZM61.2827 96.5909C60.7798 96.5909 60.348 96.5256 59.9872 96.3949C59.6264 96.267 59.3281 96.0966 59.0923 95.8835C58.8594 95.6705 58.6804 95.4403 58.5554 95.1932L59.5014 94.6861C59.5866 94.8082 59.696 94.9432 59.8295 95.0909C59.9659 95.2386 60.1506 95.3665 60.3835 95.4744C60.6165 95.5824 60.919 95.6364 61.2912 95.6364C61.7969 95.6364 62.2145 95.5128 62.544 95.2656C62.8736 95.0213 63.0384 94.6349 63.0384 94.1065V92.7983H62.9531C62.8793 92.929 62.7727 93.081 62.6335 93.2543C62.4943 93.4247 62.2983 93.5753 62.0455 93.706C61.7955 93.8338 61.4645 93.8977 61.0526 93.8977C60.5298 93.8977 60.0597 93.7756 59.642 93.5312C59.2273 93.2841 58.8991 92.9219 58.6577 92.4446C58.4162 91.9673 58.2955 91.3849 58.2955 90.6974C58.2955 90.0156 58.4134 89.4261 58.6491 88.929C58.8849 88.429 59.2116 88.044 59.6293 87.7741C60.0469 87.5043 60.5256 87.3693 61.0653 87.3693C61.483 87.3693 61.8168 87.4389 62.0668 87.5781C62.3168 87.7145 62.5099 87.8722 62.6463 88.0511C62.7855 88.2301 62.8935 88.3807 62.9702 88.5028H63.0639V87.4545H64.1761V94.1662C64.1761 94.7287 64.0469 95.1875 63.7884 95.5426C63.5327 95.9006 63.1861 96.1648 62.7486 96.3352C62.3111 96.5057 61.8224 96.5909 61.2827 96.5909ZM61.2614 92.9176C61.6477 92.9176 61.973 92.8295 62.2372 92.6534C62.5043 92.4744 62.7074 92.2173 62.8466 91.8821C62.9858 91.5469 63.0554 91.1463 63.0554 90.6804C63.0554 90.223 62.9872 89.821 62.8509 89.4744C62.7145 89.1278 62.5128 88.8565 62.2457 88.6605C61.9787 88.4616 61.6506 88.3622 61.2614 88.3622C60.858 88.3622 60.5213 88.4659 60.2514 88.6733C59.9815 88.8807 59.7784 89.1591 59.642 89.5085C59.5085 89.858 59.4418 90.2486 59.4418 90.6804C59.4418 91.1236 59.5099 91.5128 59.6463 91.848C59.7855 92.1832 59.9886 92.446 60.2557 92.6364C60.5256 92.8239 60.8608 92.9176 61.2614 92.9176ZM68.7358 94.1364C68.0966 94.1364 67.5469 93.9972 67.0866 93.7188C66.6264 93.4375 66.2713 93.0455 66.0213 92.5426C65.7741 92.0369 65.6506 91.4474 65.6506 90.7741C65.6506 90.1037 65.7741 89.5128 66.0213 89.0014C66.2713 88.4872 66.6193 88.0866 67.0653 87.7997C67.5142 87.5128 68.0384 87.3693 68.6378 87.3693C68.9929 87.3693 69.3395 87.429 69.6776 87.5483C70.0185 87.6648 70.3253 87.8523 70.598 88.1108C70.8736 88.3665 71.0909 88.7031 71.25 89.1207C71.4119 89.5384 71.4929 90.0483 71.4929 90.6506V91.0895H66.3665V90.1776H70.3551C70.3551 89.8253 70.2841 89.5128 70.142 89.2401C70.0028 88.9645 69.804 88.7472 69.5455 88.5881C69.2898 88.429 68.9886 88.3494 68.642 88.3494C68.2614 88.3494 67.9318 88.4418 67.6534 88.6264C67.3778 88.8111 67.1648 89.0526 67.0142 89.3509C66.8636 89.6491 66.7884 89.9702 66.7884 90.3139V90.9744C66.7884 91.4403 66.8693 91.8366 67.0312 92.1634C67.196 92.4872 67.4247 92.7344 67.7173 92.9048C68.0099 93.0724 68.3509 93.1562 68.7401 93.1562C68.9929 93.1562 69.223 93.1207 69.4304 93.0497C69.6378 92.9759 69.8153 92.8665 69.9631 92.7216C70.1136 92.5767 70.2301 92.3949 70.3125 92.1761L71.4034 92.4233C71.304 92.7642 71.1307 93.0639 70.8835 93.3224C70.6392 93.5781 70.3338 93.7784 69.9673 93.9233C69.6037 94.0653 69.1932 94.1364 68.7358 94.1364ZM76.369 94V85.2727H79.4031C80.082 85.2727 80.6417 85.3963 81.082 85.6435C81.5252 85.8906 81.8548 86.2259 82.0707 86.6491C82.2866 87.0696 82.3945 87.5426 82.3945 88.0682C82.3945 88.5937 82.2866 89.0682 82.0707 89.4915C81.8548 89.9148 81.5266 90.2514 81.0863 90.5014C80.646 90.7486 80.0863 90.8722 79.4073 90.8722H77.2809V89.8452H79.3306C79.7795 89.8452 80.1417 89.767 80.4173 89.6108C80.6928 89.4545 80.8931 89.2429 81.0181 88.9759C81.146 88.7088 81.2099 88.4062 81.2099 88.0682C81.2099 87.7273 81.146 87.4247 81.0181 87.1605C80.8931 86.8935 80.6914 86.6847 80.413 86.5341C80.1346 86.3807 79.7681 86.304 79.3136 86.304H77.5579V94H76.369ZM85.0323 85.2727V94H83.8903V85.2727H85.0323ZM88.7259 94.1491C88.3111 94.1491 87.9347 94.071 87.5966 93.9148C87.2614 93.7585 86.9943 93.5327 86.7955 93.2372C86.5994 92.9389 86.5014 92.5753 86.5014 92.1463C86.5014 91.7741 86.5739 91.4702 86.7188 91.2344C86.8665 90.9957 87.0625 90.8082 87.3068 90.6719C87.5511 90.5355 87.8224 90.4332 88.1207 90.3651C88.419 90.2969 88.7216 90.2443 89.0284 90.2074C89.4233 90.1562 89.7429 90.1165 89.9872 90.0881C90.2344 90.0597 90.4148 90.0128 90.5284 89.9474C90.642 89.8821 90.6989 89.7699 90.6989 89.6108V89.5767C90.6989 89.1818 90.5895 88.875 90.3707 88.6562C90.152 88.4375 89.8239 88.3281 89.3864 88.3281C88.9318 88.3281 88.5753 88.4276 88.3168 88.6264C88.0582 88.8253 87.8764 89.0426 87.7713 89.2784L86.6974 88.9716C86.8537 88.5739 87.071 88.2585 87.3494 88.0256C87.6307 87.7898 87.9446 87.6222 88.2912 87.5227C88.6406 87.4205 88.9972 87.3693 89.3608 87.3693C89.5966 87.3693 89.8565 87.3977 90.1406 87.4545C90.4247 87.5085 90.6946 87.6151 90.9503 87.7741C91.2088 87.9304 91.4219 88.1619 91.5895 88.4688C91.7571 88.7727 91.8409 89.1733 91.8409 89.6705V94H90.7159V93.1094H90.6648C90.5909 93.2628 90.473 93.4205 90.3111 93.5824C90.1491 93.7415 89.9375 93.8764 89.6761 93.9872C89.4148 94.0952 89.098 94.1491 88.7259 94.1491ZM88.9389 93.1861C89.3168 93.1861 89.6364 93.1122 89.8977 92.9645C90.1591 92.8168 90.358 92.625 90.4943 92.3892C90.6335 92.1534 90.7031 91.902 90.7031 91.6349V90.7528C90.6577 90.8011 90.5668 90.8452 90.4304 90.8849C90.294 90.9247 90.1378 90.9588 89.9616 90.9872C89.7884 91.0156 89.6179 91.0412 89.4503 91.0639C89.2855 91.0838 89.1491 91.1009 89.0412 91.1151C88.7884 91.1491 88.554 91.2031 88.3381 91.277C88.125 91.3509 87.9531 91.4602 87.8224 91.6051C87.6946 91.7472 87.6307 91.9389 87.6307 92.1804C87.6307 92.5128 87.7543 92.7642 88.0014 92.9347C88.2486 93.1023 88.5611 93.1861 88.9389 93.1861ZM96.3153 94.1364C95.6932 94.1364 95.1563 93.9915 94.7045 93.7017C94.2557 93.4119 93.9105 93.0128 93.669 92.5043C93.4276 91.9957 93.3068 91.4148 93.3068 90.7614C93.3068 90.0937 93.4304 89.5057 93.6776 88.9972C93.9276 88.4886 94.2756 88.0909 94.7216 87.804C95.1705 87.5142 95.696 87.3693 96.2983 87.3693C96.7784 87.3693 97.2074 87.4574 97.5852 87.6335C97.9659 87.8097 98.2756 88.0568 98.5142 88.375C98.7528 88.6932 98.8977 89.0653 98.9489 89.4915H97.8239C97.7528 89.1875 97.5895 88.9233 97.3338 88.6989C97.081 88.4716 96.7429 88.358 96.3196 88.358C95.9446 88.358 95.6165 88.456 95.3352 88.652C95.0568 88.8452 94.8395 89.1193 94.6832 89.4744C94.5298 89.8295 94.4531 90.2472 94.4531 90.7273C94.4531 91.2187 94.5298 91.6449 94.6832 92.0057C94.8366 92.3665 95.0526 92.6463 95.331 92.8452C95.6122 93.044 95.9418 93.1435 96.3196 93.1435C96.5724 93.1435 96.8011 93.098 97.0057 93.0071C97.2102 92.9162 97.3835 92.7869 97.5256 92.6193C97.6676 92.4489 97.767 92.2457 97.8239 92.0099H98.9489C98.8949 92.4134 98.7543 92.7756 98.527 93.0966C98.3026 93.4176 98.0028 93.6719 97.6278 93.8594C97.2528 94.044 96.8153 94.1364 96.3153 94.1364ZM103.154 94.1364C102.515 94.1364 101.965 93.9972 101.505 93.7188C101.044 93.4375 100.689 93.0455 100.439 92.5426C100.192 92.0369 100.069 91.4474 100.069 90.7741C100.069 90.1037 100.192 89.5128 100.439 89.0014C100.689 88.4872 101.037 88.0866 101.483 87.7997C101.932 87.5128 102.456 87.3693 103.056 87.3693C103.411 87.3693 103.757 87.429 104.096 87.5483C104.436 87.6648 104.743 87.8523 105.016 88.1108C105.292 88.3665 105.509 88.7031 105.668 89.1207C105.83 89.5384 105.911 90.0483 105.911 90.6506V91.0895H100.784V90.1776H104.773C104.773 89.8253 104.702 89.5128 104.56 89.2401C104.421 88.9645 104.222 88.7472 103.963 88.5881C103.708 88.429 103.407 88.3494 103.06 88.3494C102.679 88.3494 102.35 88.4418 102.071 88.6264C101.796 88.8111 101.583 89.0526 101.432 89.3509C101.282 89.6491 101.206 89.9702 101.206 90.3139V90.9744C101.206 91.4403 101.287 91.8366 101.449 92.1634C101.614 92.4872 101.843 92.7344 102.135 92.9048C102.428 93.0724 102.769 93.1562 103.158 93.1562C103.411 93.1562 103.641 93.1207 103.848 93.0497C104.056 92.9759 104.233 92.8665 104.381 92.7216C104.532 92.5767 104.648 92.3949 104.73 92.1761L105.821 92.4233C105.722 92.7642 105.549 93.0639 105.301 93.3224C105.057 93.5781 104.752 93.7784 104.385 93.9233C104.022 94.0653 103.611 94.1364 103.154 94.1364ZM108.528 90.0881V94H107.386V85.2727H108.52V88.4986H108.605C108.756 88.152 108.987 87.8778 109.3 87.6761C109.612 87.4716 110.024 87.3693 110.536 87.3693C110.982 87.3693 111.372 87.4602 111.707 87.642C112.045 87.821 112.307 88.0938 112.491 88.4602C112.679 88.8267 112.773 89.2869 112.773 89.8409V94H111.631V89.9517C111.631 89.4517 111.501 89.0639 111.243 88.7884C110.987 88.5128 110.631 88.375 110.173 88.375C109.858 88.375 109.575 88.4418 109.325 88.5753C109.078 88.7088 108.884 88.9034 108.741 89.1591C108.599 89.4148 108.528 89.7244 108.528 90.0881ZM117.257 94.1364C116.654 94.1364 116.127 93.9957 115.676 93.7145C115.224 93.4304 114.873 93.0355 114.623 92.5298C114.373 92.0241 114.248 91.4347 114.248 90.7614C114.248 90.0795 114.373 89.4844 114.623 88.9759C114.873 88.4673 115.224 88.0724 115.676 87.7912C116.127 87.5099 116.654 87.3693 117.257 87.3693C117.859 87.3693 118.386 87.5099 118.838 87.7912C119.289 88.0724 119.64 88.4673 119.89 88.9759C120.14 89.4844 120.265 90.0795 120.265 90.7614C120.265 91.4347 120.14 92.0241 119.89 92.5298C119.64 93.0355 119.289 93.4304 118.838 93.7145C118.386 93.9957 117.859 94.1364 117.257 94.1364ZM117.257 93.1477C117.683 93.1477 118.032 93.0384 118.305 92.8196C118.581 92.598 118.785 92.3068 118.919 91.946C119.052 91.5824 119.119 91.1861 119.119 90.7571C119.119 90.331 119.052 89.9361 118.919 89.5724C118.785 89.206 118.581 88.9119 118.305 88.6903C118.032 88.4659 117.683 88.3537 117.257 88.3537C116.833 88.3537 116.484 88.4659 116.208 88.6903C115.933 88.9119 115.728 89.206 115.595 89.5724C115.461 89.9361 115.395 90.331 115.395 90.7571C115.395 91.1861 115.461 91.5824 115.595 91.946C115.728 92.3068 115.933 92.598 116.208 92.8196C116.484 93.0384 116.833 93.1477 117.257 93.1477ZM122.884 85.2727V94H121.742V85.2727H122.884ZM127.123 94.1321C126.586 94.1321 126.11 93.9957 125.695 93.723C125.281 93.4474 124.955 93.0568 124.719 92.5511C124.484 92.0455 124.366 91.4432 124.366 90.7443C124.366 90.0455 124.484 89.4446 124.719 88.9418C124.955 88.4361 125.282 88.0483 125.7 87.7784C126.117 87.5057 126.596 87.3693 127.136 87.3693C127.553 87.3693 127.886 87.4389 128.133 87.5781C128.38 87.7145 128.572 87.8722 128.708 88.0511C128.844 88.2301 128.95 88.3807 129.023 88.5028H129.104V85.2727H130.242V94H129.134V92.9858H129.023C128.947 93.1165 128.839 93.2727 128.7 93.4545C128.56 93.6335 128.364 93.7912 128.112 93.9276C127.862 94.0639 127.532 94.1321 127.123 94.1321ZM127.332 93.1392C127.718 93.1392 128.043 93.0384 128.308 92.8366C128.575 92.6321 128.778 92.3494 128.917 91.9886C129.056 91.625 129.126 91.2045 129.126 90.7273C129.126 90.2557 129.058 89.8423 128.921 89.4872C128.785 89.1321 128.583 88.8565 128.316 88.6605C128.049 88.4616 127.721 88.3622 127.332 88.3622C126.928 88.3622 126.592 88.4673 126.322 88.6776C126.052 88.8849 125.849 89.1676 125.712 89.5256C125.579 89.8807 125.512 90.2812 125.512 90.7273C125.512 91.179 125.58 91.5881 125.717 91.9545C125.856 92.3182 126.059 92.6065 126.326 92.8196C126.596 93.0327 126.931 93.1392 127.332 93.1392ZM134.923 94.1364C134.284 94.1364 133.734 93.9972 133.274 93.7188C132.814 93.4375 132.459 93.0455 132.209 92.5426C131.962 92.0369 131.838 91.4474 131.838 90.7741C131.838 90.1037 131.962 89.5128 132.209 89.0014C132.459 88.4872 132.807 88.0866 133.253 87.7997C133.702 87.5128 134.226 87.3693 134.825 87.3693C135.18 87.3693 135.527 87.429 135.865 87.5483C136.206 87.6648 136.513 87.8523 136.786 88.1108C137.061 88.3665 137.278 88.7031 137.438 89.1207C137.599 89.5384 137.68 90.0483 137.68 90.6506V91.0895H132.554V90.1776H136.543C136.543 89.8253 136.472 89.5128 136.33 89.2401C136.19 88.9645 135.991 88.7472 135.733 88.5881C135.477 88.429 135.176 88.3494 134.83 88.3494C134.449 88.3494 134.119 88.4418 133.841 88.6264C133.565 88.8111 133.352 89.0526 133.202 89.3509C133.051 89.6491 132.976 89.9702 132.976 90.3139V90.9744C132.976 91.4403 133.057 91.8366 133.219 92.1634C133.384 92.4872 133.612 92.7344 133.905 92.9048C134.197 93.0724 134.538 93.1562 134.928 93.1562C135.18 93.1562 135.411 93.1207 135.618 93.0497C135.825 92.9759 136.003 92.8665 136.151 92.7216C136.301 92.5767 136.418 92.3949 136.5 92.1761L137.591 92.4233C137.491 92.7642 137.318 93.0639 137.071 93.3224C136.827 93.5781 136.521 93.7784 136.155 93.9233C135.791 94.0653 135.381 94.1364 134.923 94.1364ZM139.156 94V87.4545H140.26V88.4688H140.328C140.447 88.1307 140.66 87.8608 140.967 87.6591C141.277 87.4545 141.625 87.3523 142.011 87.3523C142.088 87.3523 142.18 87.3551 142.288 87.3608C142.399 87.3636 142.485 87.3693 142.548 87.3778V88.4986C142.505 88.4872 142.42 88.473 142.292 88.456C142.167 88.4361 142.039 88.4261 141.909 88.4261C141.599 88.4261 141.322 88.4915 141.078 88.6222C140.836 88.75 140.646 88.9276 140.507 89.1548C140.368 89.3821 140.298 89.6406 140.298 89.9304V94H139.156Z" fill="black"/>
</svg>
