<svg width="24" height="24" viewBox="0 0 24 24" fill="none" xmlns="http://www.w3.org/2000/svg">
<rect width="24" height="24" rx="4" fill="#E3B214"/>
<g clip-path="url(#clip0_370_5801)">
<path fill-rule="evenodd" clip-rule="evenodd" d="M7.9999 4C7.54524 4 7.1092 4.18061 6.78771 4.5021C6.46622 4.82359 6.28561 5.25963 6.28561 5.71429V12.5131C6.35075 12.5646 6.41361 12.6206 6.47304 12.6811L7.2799 13.488L8.08675 12.6811C8.51784 12.2648 9.09522 12.0344 9.69453 12.0396C10.2938 12.0448 10.8671 12.2852 11.2909 12.709C11.7147 13.1328 11.9551 13.7061 11.9603 14.3054C11.9655 14.9047 11.7351 15.4821 11.3188 15.9131L10.5119 16.72L11.3188 17.5269C11.6361 17.8442 11.853 18.2479 11.9425 18.6877C12.0319 19.1275 11.9899 19.5839 11.8216 20H18.2856C18.7403 20 19.1763 19.8194 19.4978 19.4979C19.8193 19.1764 19.9999 18.7404 19.9999 18.2857V9.14286C20 9.06777 19.9854 8.99339 19.9567 8.92397C19.9281 8.85455 19.8861 8.79145 19.833 8.73829L15.2616 4.16686C15.2084 4.11383 15.1454 4.0718 15.0759 4.04316C15.0065 4.01453 14.9321 3.99987 14.857 4H7.9999ZM10.3085 13.6914C10.469 13.8521 10.5591 14.07 10.5591 14.2971C10.5591 14.5243 10.469 14.7421 10.3085 14.9029L8.49132 16.72L10.3085 18.5371C10.3927 18.6156 10.4602 18.7102 10.5071 18.8154C10.5539 18.9205 10.5791 19.034 10.5811 19.1491C10.5832 19.2642 10.562 19.3785 10.5189 19.4853C10.4758 19.592 10.4116 19.6889 10.3302 19.7703C10.2488 19.8517 10.1519 19.9159 10.0452 19.959C9.93842 20.0021 9.8241 20.0233 9.70901 20.0212C9.59392 20.0192 9.48042 19.994 9.37528 19.9472C9.27014 19.9003 9.17551 19.8328 9.09704 19.7486L7.2799 17.9314L5.46275 19.7486C5.30027 19.9 5.08536 19.9824 4.8633 19.9785C4.64124 19.9746 4.42937 19.8846 4.27233 19.7276C4.11529 19.5705 4.02533 19.3587 4.02141 19.1366C4.01749 18.9145 4.09992 18.6996 4.25133 18.5371L6.06847 16.72L4.25133 14.9029C4.16711 14.8244 4.09957 14.7298 4.05272 14.6246C4.00587 14.5195 3.98068 14.406 3.97865 14.2909C3.97662 14.1758 3.99779 14.0615 4.0409 13.9547C4.08401 13.848 4.14817 13.7511 4.22957 13.6697C4.31096 13.5883 4.40791 13.5241 4.51464 13.481C4.62137 13.4379 4.73569 13.4167 4.85078 13.4188C4.96587 13.4208 5.07937 13.446 5.18451 13.4928C5.28965 13.5397 5.38428 13.6072 5.46275 13.6914L7.2799 15.5086L9.09704 13.6914C9.25775 13.5309 9.47561 13.4408 9.70275 13.4408C9.9299 13.4408 10.1478 13.5309 10.3085 13.6914Z" fill="#F9F9F9"/>
</g>
<defs>
<clipPath id="clip0_370_5801">
<rect width="16" height="16" fill="white" transform="translate(4 4)"/>
</clipPath>
</defs>
</svg>
