<svg width="16" height="16" viewBox="0 0 16 16" fill="none" xmlns="http://www.w3.org/2000/svg">
<path fill-rule="evenodd" clip-rule="evenodd" d="M9.1503e-07 1.14286V5.14286C-0.000201559 5.25602 0.0332023 5.3667 0.0959778 5.46086C0.158753 5.55502 0.248073 5.62842 0.352614 5.67175C0.457155 5.71509 0.572209 5.72641 0.68319 5.70427C0.794171 5.68214 0.896081 5.62755 0.976001 5.54743L2.45257 4.06857L4.90629 6.52114C5.12183 6.72932 5.41052 6.84452 5.71017 6.84191C6.00983 6.83931 6.29647 6.71912 6.50837 6.50722C6.72026 6.29533 6.84045 6.00868 6.84306 5.70903C6.84566 5.40938 6.73047 5.12069 6.52229 4.90514L4.06972 2.45257L5.54743 0.976001C5.62755 0.896081 5.68214 0.794171 5.70427 0.68319C5.72641 0.572209 5.71509 0.457155 5.67175 0.352614C5.62842 0.248073 5.55502 0.158753 5.46086 0.0959778C5.3667 0.0332023 5.25602 -0.000201559 5.14286 9.1503e-07H0.571429C0.419877 9.1503e-07 0.274532 0.0602048 0.167368 0.167368C0.0602048 0.274532 9.1503e-07 0.419877 9.1503e-07 0.571429V1.14286ZM6.52229 11.0937C6.73047 10.8782 6.84566 10.5895 6.84306 10.2898C6.84045 9.99018 6.72026 9.70353 6.50837 9.49164C6.29647 9.27974 6.00983 9.15955 5.71017 9.15695C5.41052 9.15434 5.12183 9.26954 4.90629 9.47772L2.45257 11.9303L0.976001 10.4526C0.896081 10.3725 0.794171 10.3179 0.68319 10.2957C0.572209 10.2736 0.457155 10.2849 0.352614 10.3282C0.248073 10.3716 0.158753 10.445 0.0959778 10.5391C0.0332023 10.6333 -0.000201559 10.744 9.1503e-07 10.8571V15.4286C9.1503e-07 15.5801 0.0602048 15.7255 0.167368 15.8326C0.274532 15.9398 0.419877 16 0.571429 16H5.14286C5.25602 16.0002 5.3667 15.9668 5.46086 15.904C5.55502 15.8412 5.62842 15.7519 5.67175 15.6474C5.71509 15.5428 5.72641 15.4278 5.70427 15.3168C5.68214 15.2058 5.62755 15.1039 5.54743 15.024L4.06857 13.5474L6.52114 11.0937H6.52229ZM9.47772 9.47772C9.69203 9.26346 9.98267 9.1431 10.2857 9.1431C10.5888 9.1431 10.8794 9.26346 11.0937 9.47772L13.5474 11.9303L15.024 10.4526C15.1039 10.3725 15.2058 10.3179 15.3168 10.2957C15.4278 10.2736 15.5428 10.2849 15.6474 10.3282C15.7519 10.3716 15.8412 10.445 15.904 10.5391C15.9668 10.6333 16.0002 10.744 16 10.8571V15.4286C16 15.5801 15.9398 15.7255 15.8326 15.8326C15.7255 15.9398 15.5801 16 15.4286 16H10.8571C10.744 16.0002 10.6333 15.9668 10.5391 15.904C10.445 15.8412 10.3716 15.7519 10.3282 15.6474C10.2849 15.5428 10.2736 15.4278 10.2957 15.3168C10.3179 15.2058 10.3725 15.1039 10.4526 15.024L11.9303 13.5474L9.47772 11.0937C9.26346 10.8794 9.1431 10.5888 9.1431 10.2857C9.1431 9.98267 9.26346 9.69203 9.47772 9.47772ZM10.8571 9.1503e-07C10.744 -0.000201559 10.6333 0.0332023 10.5391 0.0959778C10.445 0.158753 10.3716 0.248073 10.3282 0.352614C10.2849 0.457155 10.2736 0.572209 10.2957 0.68319C10.3179 0.794171 10.3725 0.896081 10.4526 0.976001L11.9303 2.45257L9.47772 4.90629C9.26954 5.12183 9.15434 5.41052 9.15695 5.71017C9.15955 6.00983 9.27974 6.29647 9.49164 6.50837C9.70353 6.72026 9.99018 6.84045 10.2898 6.84306C10.5895 6.84566 10.8782 6.73047 11.0937 6.52229L13.5474 4.06972L15.024 5.54743C15.1039 5.62755 15.2058 5.68214 15.3168 5.70427C15.4278 5.72641 15.5428 5.71509 15.6474 5.67175C15.7519 5.62842 15.8412 5.55502 15.904 5.46086C15.9668 5.3667 16.0002 5.25602 16 5.14286V0.571429C16 0.419877 15.9398 0.274532 15.8326 0.167368C15.7255 0.0602048 15.5801 9.1503e-07 15.4286 9.1503e-07H10.8571Z" fill="#F9F9F9"/>
</svg>
