<svg width="88" height="55" viewBox="0 0 88 55" fill="none" xmlns="http://www.w3.org/2000/svg">
<g clip-path="url(#clip0_218_201)">
<path d="M3.55131 54.5866C3.48471 54.476 3.45093 54.3203 3.45093 54.1213L3.46734 50.4312V49.6332C3.46734 49.2121 3.48375 48.8304 3.51753 48.4862L3.56772 46.4585C3.56772 46.2258 3.57351 45.8797 3.58413 45.4201C3.59475 44.9605 3.60633 44.6692 3.61791 44.5471C3.62853 44.4586 3.63432 44.3038 3.63432 44.0817C3.63432 43.6943 3.61791 43.4174 3.58413 43.2511C3.57255 43.2289 3.56772 43.2011 3.56772 43.1684C3.56772 43.102 3.62853 43.052 3.75111 43.0184C3.86211 42.9847 4.15747 42.9386 4.63526 42.877C5.11305 42.8165 5.5474 42.7857 5.93638 42.7857C6.99331 42.7857 7.83016 42.9963 8.4479 43.4174C9.06564 43.8385 9.37355 44.6365 9.37355 45.8104C9.37355 46.8738 9.05117 47.7055 8.40543 48.3035C8.11586 48.5477 7.79927 48.7304 7.45468 48.8515C8.09945 49.0842 8.76449 49.4746 9.44884 50.0235C10.1332 50.5725 10.4749 51.3888 10.4749 52.4753C10.4749 53.1848 10.222 53.703 9.71524 54.029C9.2085 54.3559 8.69789 54.5501 8.18053 54.6106C7.66317 54.6712 7.12072 54.702 6.55413 54.702L4.93544 54.7347L3.91713 54.751C3.73953 54.751 3.61695 54.6953 3.55035 54.5847L3.55131 54.5866ZM8.60716 53.8636C9.15252 53.5146 9.42471 53.0464 9.42471 52.4589C9.42471 50.9744 8.78476 49.9659 7.50584 49.4342C6.93829 49.2236 6.29834 49.1236 5.58697 49.1352C5.57539 49.1679 5.57056 49.213 5.57056 49.2678C5.55898 49.3236 5.55415 49.4505 5.55415 49.6505L5.58794 50.7139L5.62172 51.6119C5.62172 51.7667 5.61593 51.8782 5.60531 51.9445L5.5889 52.3762L5.62269 53.3569L5.65647 54.1213C5.65647 54.254 5.68156 54.3347 5.73176 54.3626C5.78195 54.3905 5.85434 54.402 5.94893 54.3962C6.04352 54.3905 6.11302 54.3876 6.15742 54.3876C7.24716 54.3876 8.06471 54.2136 8.61006 53.8636H8.60716ZM6.75489 48.4535C7.22206 48.3314 7.67282 48.0708 8.10621 47.6728C8.5396 47.2738 8.75677 46.6979 8.75677 45.9441C8.75677 45.1461 8.61778 44.5538 8.3398 44.1654C8.06181 43.7779 7.71433 43.5308 7.29735 43.426C6.88037 43.3212 6.34853 43.2684 5.70376 43.2684L5.66998 44.3317C5.64778 45.1297 5.6362 45.722 5.6362 46.1104V48.0055C5.6362 48.116 5.63041 48.2131 5.61979 48.2958C5.60821 48.3795 5.60338 48.4429 5.60338 48.4871C5.60338 48.5535 5.60917 48.5948 5.61979 48.6121C5.63041 48.6285 5.66419 48.6371 5.72017 48.6371C5.94218 48.6371 6.28773 48.5766 6.75489 48.4545V48.4535Z" fill="white"/>
<path d="M17.1997 54.7693C17.0665 54.7799 16.9854 54.753 16.9574 54.6866C16.9294 54.6203 16.9178 54.5395 16.9236 54.4453C16.9294 54.3511 16.9323 54.2818 16.9323 54.2376L16.9487 54.0049C16.4371 54.2597 16.0144 54.4453 15.6804 54.5616C15.3464 54.678 14.9188 54.7357 14.3957 54.7357C13.8725 54.7357 13.4585 54.6549 13.1197 54.4943C12.7799 54.3338 12.4662 54.054 12.1766 53.655C11.9768 53.4117 11.8349 53.0454 11.751 52.558C11.668 52.0705 11.6255 51.6436 11.6255 51.2783V45.5941C11.6255 45.4614 11.6448 45.3691 11.6844 45.3201C11.723 45.2701 11.7867 45.2345 11.8764 45.2124C11.9102 45.2019 11.971 45.1961 12.0598 45.1961L12.5608 45.2124C12.75 45.2124 12.8446 45.3067 12.8446 45.4951L12.7944 47.8718C12.7606 48.5362 12.7442 49.0794 12.7442 49.5005L12.7278 50.6639C12.7278 51.683 12.8002 52.3484 12.945 52.6579C13.0897 52.9464 13.22 53.1598 13.3368 53.2983C13.4536 53.4367 13.609 53.5367 13.804 53.5973C13.999 53.6579 14.2799 53.6886 14.6466 53.6886C15.0356 53.6886 15.4391 53.6136 15.8561 53.4646C16.273 53.3156 16.6485 53.1406 16.9825 52.9406C17.0163 52.1426 17.0327 51.1571 17.0327 49.9822C17.0327 48.941 17.0105 47.7997 16.9661 46.5585L16.9323 45.3451C16.9323 45.2124 17.0269 45.1461 17.2161 45.1461H17.5665C17.6553 45.1461 17.7663 45.149 17.9004 45.1547C18.0336 45.1605 18.1842 45.1576 18.3512 45.1461H18.4342C18.5568 45.1461 18.6176 45.1961 18.6176 45.2961V45.8941L18.634 46.6921C18.69 48.4535 18.7112 49.4678 18.7006 49.7332V54.1713C18.7112 54.2376 18.717 54.327 18.717 54.4376C18.717 54.5703 18.6977 54.6616 18.6591 54.7116C18.6195 54.7616 18.551 54.7866 18.4506 54.7866C17.8386 54.7645 17.4217 54.7587 17.1997 54.7703V54.7693Z" fill="white"/>
<path d="M30.2812 54.5539V54.5039L30.2976 54.2213C30.2638 53.7559 30.2474 53.0242 30.2474 52.0272C30.2474 51.684 30.2532 51.4177 30.2638 51.2292L30.2802 50.2649C30.2802 50.0216 30.2609 49.6168 30.2223 49.0515C30.1828 48.4862 30.147 48.0987 30.1142 47.8882C30.0476 47.5228 29.9057 47.2815 29.6886 47.1651C29.4714 47.0488 29.1519 46.9902 28.7291 46.9902C28.5177 46.9902 28.2784 47.0123 28.012 47.0565C27.7446 47.1007 27.5554 47.1507 27.4444 47.2065C27.4666 47.7612 27.4782 48.2151 27.4782 48.5698C27.4782 49.4121 27.4618 50.1649 27.428 50.8302L27.4116 51.9272C27.4116 52.0051 27.4145 52.2128 27.4203 52.5503C27.4261 52.8887 27.429 53.4502 27.429 54.2376C27.429 54.2818 27.4348 54.3261 27.4454 54.3703C27.456 54.4145 27.4618 54.4645 27.4618 54.5203C27.4502 54.6087 27.3672 54.653 27.2118 54.653C27.1114 54.653 26.9695 54.6443 26.7861 54.628C26.6027 54.6116 26.4329 54.603 26.2775 54.603C26.1221 54.603 25.9715 54.6116 25.8267 54.628C25.6819 54.6443 25.5709 54.653 25.4927 54.653C25.4145 54.6414 25.3759 54.5972 25.3759 54.5203V54.4703L25.3923 54.1876C25.3586 53.7223 25.3422 53.0021 25.3422 52.0272C25.3422 51.684 25.3479 51.4177 25.3586 51.2292L25.375 50.2649L25.3914 48.9515C25.3914 48.5419 25.3798 48.2814 25.3576 48.1708C25.291 47.7939 25.1047 47.5036 24.7987 47.2978C24.4928 47.093 24.1395 46.9902 23.7389 46.9902C23.5159 46.9902 23.2804 47.0238 23.0295 47.0901C22.7795 47.1565 22.598 47.2401 22.487 47.3392C22.487 48.2698 22.4928 48.8573 22.5034 49.1005V51.3446C22.5372 52.2416 22.5536 52.907 22.5536 53.3386C22.5536 53.9261 22.5256 54.3309 22.4706 54.552C22.4706 54.6299 22.3818 54.6683 22.2032 54.6683C22.1695 54.6683 22.1202 54.6568 22.0527 54.6347C21.9851 54.6126 21.8577 54.601 21.6685 54.601C21.4571 54.601 21.2708 54.6068 21.1096 54.6174C20.9484 54.6289 20.823 54.6337 20.7342 54.6337C20.5672 54.6337 20.4842 54.5674 20.4842 54.4337C20.4842 54.4232 20.4871 54.3982 20.4929 54.3587C20.4987 54.3203 20.5015 54.2568 20.5015 54.1674L20.4678 52.8877C20.4234 51.159 20.407 50.1514 20.4176 49.863C20.4282 49.7861 20.434 49.5967 20.434 49.2976L20.4176 47.918C20.3954 47.143 20.3838 46.5604 20.3838 46.1729C20.3838 45.7854 20.3896 45.5307 20.4002 45.3749L20.3838 45.1422C20.3838 45.0201 20.4118 44.9538 20.4668 44.9423C20.545 44.9423 20.6637 44.948 20.8259 44.9586C20.9871 44.9701 21.1733 44.9749 21.3847 44.9749C21.5739 44.9749 21.7457 44.9692 21.9021 44.9586C22.0575 44.948 22.1695 44.9423 22.2361 44.9423C22.2698 44.9423 22.2998 44.9615 22.3278 44.9999C22.3557 45.0394 22.3693 45.0692 22.3693 45.0913V45.3076C22.6366 45.1413 23.0169 44.998 23.5121 44.8759C24.0072 44.7538 24.4319 44.6932 24.7881 44.6932C25.2437 44.6932 25.5699 44.7125 25.764 44.7509C25.9589 44.7903 26.2118 44.8817 26.5236 45.0249L26.9242 45.274C27.2137 45.1192 27.594 44.9836 28.067 44.8673C28.5399 44.7509 28.9656 44.6932 29.343 44.6932C29.899 44.6932 30.3333 44.7538 30.6441 44.8759C30.9559 44.998 31.2619 45.2528 31.5621 45.6403C31.84 45.9835 32.0456 46.5075 32.1798 47.2113C32.313 47.9151 32.3796 48.6708 32.3796 49.4803C32.3796 49.912 32.368 50.4504 32.3458 51.0927C32.3236 51.5359 32.312 51.8128 32.312 51.9234C32.312 52.0013 32.3149 52.206 32.3207 52.5387C32.3265 52.8714 32.3294 53.4252 32.3294 54.2011C32.3294 54.2453 32.3352 54.2895 32.3458 54.3337C32.3564 54.378 32.3622 54.428 32.3622 54.4837C32.3622 54.5616 32.3063 54.6058 32.1953 54.6164C32.0505 54.628 31.7561 54.6328 31.3111 54.6328C31.1441 54.6328 30.9607 54.6433 30.7609 54.6664C30.6721 54.677 30.5495 54.6828 30.3941 54.6828C30.316 54.6712 30.2774 54.627 30.2774 54.5501L30.2812 54.5539Z" fill="white"/>
<path d="M33.9434 54.6867C33.9038 54.6203 33.8797 54.5098 33.8681 54.354C33.8459 54.2771 33.8565 54.0992 33.9019 53.8223C33.9019 53.756 33.9106 53.6589 33.927 53.531C33.9434 53.4041 33.9521 53.2897 33.9521 53.1906C33.9521 53.1137 33.9907 52.4926 34.0689 51.3293C34.0795 51.0187 34.0969 50.7418 34.1191 50.4986C34.1413 50.2553 34.1529 50.0669 34.1529 49.9332L34.1866 48.5872L34.2204 47.3411L34.2542 46.5931L34.288 46.1114V45.5298C34.288 45.3298 34.316 45.1923 34.371 45.1144C34.427 45.0375 34.5042 44.9981 34.6046 44.9981C34.649 44.9981 34.6876 45.0038 34.7214 45.0144C34.8218 45.026 34.9357 45.0288 35.0631 45.0231C35.1905 45.0173 35.3102 45.0144 35.4221 45.0144H35.9559C36.3121 45.0144 36.5457 45.0202 36.6567 45.0308C36.7792 45.0423 36.8651 45.0635 36.9153 45.0971C36.9655 45.1298 36.9906 45.1808 36.9906 45.2471C36.9906 45.3029 36.9848 45.3548 36.9742 45.4048C36.9626 45.4548 36.952 45.5019 36.9404 45.5461C36.8294 46.2441 36.7677 47.0421 36.757 47.9392C36.7455 48.1834 36.7406 48.5487 36.7406 49.0362L36.757 50.6985C36.7677 50.8312 36.7734 50.9706 36.7734 51.1139L36.7899 51.6619C36.8121 52.1273 36.8236 52.4821 36.8236 52.7253C36.8236 52.8916 36.8179 52.9964 36.8072 53.0407C36.7957 53.0733 36.7908 53.1791 36.7908 53.356L36.8072 54.0877C36.8179 54.2098 36.8236 54.354 36.8236 54.5194C36.8343 54.7078 36.6789 54.7905 36.3565 54.7684H34.2378C34.0814 54.779 33.9849 54.752 33.9453 54.6857L33.9434 54.6867ZM34.9028 43.8174C34.6471 43.5847 34.5187 43.2973 34.5187 42.9531C34.5187 42.654 34.6297 42.3848 34.8527 42.1474C35.0747 41.9089 35.342 41.7897 35.6538 41.7897C36.0206 41.7897 36.3488 41.8839 36.6383 42.0724C36.9279 42.2608 37.0717 42.5214 37.0717 42.854C37.0717 43.1309 36.9993 43.3694 36.8545 43.5684C36.7097 43.7674 36.535 43.9174 36.3285 44.0174C36.1229 44.1174 35.925 44.1674 35.7358 44.1674C35.4356 44.1674 35.1577 44.051 34.9019 43.8184L34.9028 43.8174Z" fill="white"/>
<path d="M43.0782 54.5866C43.0116 54.476 42.9778 54.3203 42.9778 54.1213L42.9942 50.4312V49.6332C42.9942 49.2121 43.0106 48.8304 43.0444 48.4862L43.0946 46.4585C43.0946 46.2258 43.1004 45.8797 43.111 45.4201C43.1216 44.9605 43.1332 44.6692 43.1448 44.5471C43.1554 44.4586 43.1612 44.3038 43.1612 44.0817C43.1612 43.6943 43.1448 43.4174 43.111 43.2511C43.0994 43.2289 43.0946 43.2011 43.0946 43.1684C43.0946 43.102 43.1554 43.052 43.278 43.0184C43.389 42.9847 43.6843 42.9386 44.1621 42.877C44.6399 42.8165 45.0743 42.7857 45.4642 42.7857C46.5202 42.7857 47.358 42.9963 47.9748 43.4174C48.5925 43.8385 48.9004 44.6365 48.9004 45.8104C48.9004 46.8738 48.578 47.7055 47.9333 48.3035C47.6437 48.5477 47.3271 48.7304 46.9825 48.8515C47.6273 49.0842 48.2923 49.4746 48.9767 50.0235C49.661 50.5725 50.0027 51.3888 50.0027 52.4753C50.0027 53.1848 49.7498 53.703 49.244 54.029C48.7373 54.3559 48.2257 54.5501 47.7084 54.6106C47.191 54.6712 46.6485 54.702 46.082 54.702L44.4633 54.7347L43.445 54.751C43.2674 54.751 43.1448 54.6953 43.0782 54.5847V54.5866ZM48.134 53.8636C48.6784 53.5146 48.9516 53.0464 48.9516 52.4589C48.9516 50.9744 48.3116 49.9659 47.0327 49.4342C46.4651 49.2236 45.8252 49.1236 45.1138 49.1352C45.1022 49.1679 45.0974 49.213 45.0974 49.2678C45.0858 49.3236 45.081 49.4505 45.081 49.6505L45.1148 50.7139L45.1486 51.6119C45.1486 51.7667 45.1428 51.8782 45.1322 51.9445L45.1158 52.3762L45.1495 53.3569L45.1833 54.1213C45.1833 54.254 45.2084 54.3347 45.2586 54.3626C45.3088 54.3905 45.3812 54.402 45.4758 54.3962C45.5704 54.3905 45.6399 54.3876 45.6843 54.3876C46.774 54.3876 47.5925 54.2136 48.1369 53.8636H48.134ZM46.2818 48.4535C46.7489 48.3314 47.1997 48.0708 47.6331 47.6728C48.0665 47.2738 48.2836 46.6979 48.2836 45.9441C48.2836 45.1461 48.1446 44.5538 47.8667 44.1654C47.5887 43.7779 47.2412 43.5308 46.8242 43.426C46.4072 43.3212 45.8754 43.2684 45.2306 43.2684L45.1978 44.3317C45.1756 45.1297 45.164 45.722 45.164 46.1104V48.0055C45.164 48.116 45.1582 48.2131 45.1476 48.2958C45.136 48.3795 45.1312 48.4429 45.1312 48.4871C45.1312 48.5535 45.137 48.5948 45.1476 48.6121C45.1582 48.6294 45.192 48.6371 45.248 48.6371C45.47 48.6371 45.8155 48.5766 46.2827 48.4545L46.2818 48.4535Z" fill="white"/>
<path d="M51.7383 53.3156C51.1823 52.1907 50.9043 50.986 50.9043 49.7005C50.9043 48.4151 51.0935 47.4651 51.4718 46.7171C51.8502 45.9691 52.3087 45.4461 52.8483 45.1461C53.3878 44.8471 53.9303 44.6971 54.4747 44.6971C55.4978 44.6971 56.2681 44.9913 56.7854 45.5778C57.3028 46.1653 57.6367 46.8489 57.7864 47.6305C57.9369 48.4112 58.0113 49.2563 58.0113 50.1649C58.0113 50.2428 57.9553 50.2928 57.8443 50.3149C57.4775 50.3149 56.6319 50.3755 55.3077 50.4976C55.0963 50.5197 54.8405 50.5447 54.5403 50.5726C54.2401 50.6004 53.9061 50.6254 53.5394 50.6476C53.6397 51.7225 54.2237 52.2599 55.2912 52.2599C55.6474 52.2599 55.9225 52.2263 56.1175 52.1599C56.3115 52.0936 56.6262 51.9551 57.0605 51.7446C57.1377 51.7446 57.2082 51.7888 57.269 51.8773C57.3298 51.9657 57.4167 52.1484 57.5277 52.4253C57.5615 52.4811 57.603 52.5859 57.6532 52.7407C57.7033 52.8954 57.7506 53.0118 57.795 53.0897C58.0064 53.6213 58.1068 53.8982 58.0952 53.9204C58.073 53.9646 58.0122 54.0261 57.9118 54.103C57.6783 54.3357 57.3028 54.5434 56.7854 54.7261C56.2681 54.9087 55.6976 55.0001 55.075 55.0001C53.4062 55.0001 52.2942 54.4376 51.7383 53.3127V53.3156ZM55.4756 49.5179C55.3868 48.2545 55.0808 47.6228 54.5577 47.6228C54.2459 47.6228 54.0075 47.8036 53.8405 48.1632C53.6735 48.5237 53.5731 49.0304 53.5403 49.6842L55.4756 49.5179Z" fill="white"/>
<path d="M59.8808 54.6367C59.7139 54.6367 59.6309 54.5703 59.6309 54.4367V49.8659L59.7476 45.1461C59.7476 45.024 59.7756 44.9577 59.8316 44.9462C59.876 44.924 60.0044 44.9125 60.2158 44.9125C60.6386 44.9125 60.8721 44.924 60.9165 44.9462C60.9503 44.9462 60.9802 44.9654 61.0082 45.0038C61.0362 45.0433 61.0497 45.0731 61.0497 45.0952L61.0333 45.6769L61.7679 45.3778C62.8692 44.9019 63.5033 44.6635 63.6703 44.6635H63.6867C63.764 44.6635 63.8257 44.7635 63.8701 44.9625C63.8701 45.2067 63.8759 45.3942 63.8865 45.5278C63.8865 45.6499 63.8972 45.7663 63.9203 45.8768L63.9367 46.2422V46.2758C63.9367 46.3201 63.9203 46.3643 63.8865 46.4085C63.8537 46.4527 63.8257 46.4806 63.8035 46.4922C63.4474 46.5806 63.0661 46.6498 62.6607 46.6998C62.2543 46.7498 62.0179 46.7806 61.9513 46.7912L61.0005 46.9239V49.9986L61.0343 50.8629C61.0343 51.1841 61.0285 51.4562 61.0179 51.6773C60.9841 52.0427 60.9677 52.4638 60.9677 52.9407V53.506C60.9677 54.0598 60.9455 54.404 60.9011 54.5367C60.9011 54.6145 60.8123 54.653 60.6337 54.653L59.8828 54.6367H59.8808Z" fill="white"/>
<path d="M66.1374 54.6702C65.6924 54.5039 65.4221 54.3789 65.3285 54.2962C65.2339 54.2136 65.0254 54.0107 64.703 53.6896C64.6364 53.6232 64.62 53.579 64.6528 53.5569C64.675 53.5011 64.7137 53.4405 64.7696 53.3742L64.9868 53.1079C65.0428 53.031 65.1422 52.9031 65.287 52.7252C65.3208 52.6916 65.3594 52.6752 65.4038 52.6752C65.4482 52.6752 65.509 52.7002 65.5872 52.7502C65.6644 52.8002 65.732 52.8531 65.787 52.9079C65.7976 52.9194 65.8623 52.9723 65.9791 53.0656C66.0959 53.1598 66.2657 53.2425 66.4877 53.3146C66.7097 53.3867 66.9549 53.4223 67.2223 53.4223C67.5784 53.4223 67.8844 53.3531 68.1402 53.2146C68.396 53.0762 68.5244 52.7848 68.5244 52.3416C68.5244 51.9868 68.4491 51.6878 68.2995 51.4436C68.1489 51.2004 67.9626 50.9975 67.7406 50.8369C67.5176 50.6764 67.2126 50.4908 66.8227 50.2802C66.3893 50.037 66.0389 49.8178 65.7715 49.6236C65.5042 49.4294 65.2793 49.1669 65.0959 48.8342C64.9125 48.5016 64.8208 48.092 64.8208 47.6045C64.8208 47.0286 64.9762 46.519 65.288 46.0758C65.5988 45.6326 66.0244 45.2922 66.564 45.0538C67.1036 44.8153 67.701 44.6961 68.3574 44.6961C69.4027 44.6961 70.1952 44.9153 70.7347 45.3528C71.2743 45.7902 71.5552 46.0152 71.5774 46.0258C71.6218 46.0595 71.644 46.0979 71.644 46.1421C71.644 46.1758 71.6324 46.2085 71.6112 46.2421C71.589 46.2758 71.5716 46.3085 71.561 46.3421C71.5166 46.4085 71.4413 46.5248 71.3361 46.6911C71.2299 46.8575 71.144 46.9738 71.0774 47.0401C71.0552 47.0738 71.0272 47.1151 70.9944 47.1651C70.9606 47.2151 70.9307 47.2459 70.9027 47.2565C70.8747 47.268 70.839 47.2728 70.7946 47.2728C70.7502 47.2507 70.5948 47.1315 70.3274 46.9151C70.06 46.6988 69.7628 46.4969 69.4346 46.3085C69.1064 46.12 68.8255 46.0258 68.5919 46.0258C68.3583 46.0258 68.175 46.1066 68.0746 46.2671C67.9742 46.4277 67.924 46.6969 67.924 47.0728C67.924 47.3497 67.9906 47.5824 68.1248 47.7708C68.258 47.9593 68.3863 48.0929 68.5089 48.1698C68.6315 48.2477 68.8651 48.3746 69.2097 48.5525C69.6209 48.7188 69.9799 48.8909 70.2859 49.0678C70.5919 49.2457 70.8863 49.5553 71.1701 49.9985C71.4538 50.4418 71.5957 51.0292 71.5957 51.7599C71.5957 53.8655 70.338 54.9173 67.8246 54.9173C67.146 54.9173 66.5843 54.8347 66.1393 54.6683L66.1374 54.6702Z" fill="white"/>
<path d="M72.9026 54.6867C72.8631 54.6203 72.8389 54.5098 72.8274 54.354C72.8052 54.2771 72.8158 54.0992 72.8611 53.8223C72.8611 53.756 72.8698 53.6589 72.8862 53.531C72.9026 53.4041 72.9113 53.2897 72.9113 53.1906C72.9113 53.1137 72.9499 52.4926 73.0281 51.3293C73.0387 51.0187 73.0561 50.7418 73.0783 50.4986C73.1005 50.2553 73.1111 50.0669 73.1111 49.9332L73.1449 48.5872L73.1787 47.3411L73.2125 46.5931L73.2453 46.1114V45.5298C73.2453 45.3298 73.2733 45.1923 73.3293 45.1144C73.3853 45.0375 73.4625 44.9981 73.5629 44.9981C73.6073 44.9981 73.6468 45.0038 73.6796 45.0144C73.78 45.026 73.8939 45.0288 74.0213 45.0231C74.1487 45.0173 74.2684 45.0144 74.3804 45.0144H74.9142C75.2703 45.0144 75.5039 45.0202 75.6149 45.0308C75.7375 45.0423 75.8234 45.0635 75.8736 45.0971C75.9238 45.1298 75.9489 45.1808 75.9489 45.2471C75.9489 45.3029 75.9431 45.3548 75.9325 45.4048C75.9209 45.4548 75.9103 45.5019 75.8987 45.5461C75.7877 46.2441 75.7259 47.0421 75.7153 47.9392C75.7037 48.1834 75.6989 48.5487 75.6989 49.0362L75.7153 50.6985C75.7259 50.8312 75.7317 50.9706 75.7317 51.1139L75.7481 51.6619C75.7703 52.1273 75.7819 52.4821 75.7819 52.7253C75.7819 52.8916 75.7761 52.9964 75.7655 53.0407C75.7539 53.0733 75.7491 53.1791 75.7491 53.356L75.7655 54.0877C75.7761 54.2098 75.7819 54.354 75.7819 54.5194C75.7925 54.7078 75.6371 54.7905 75.3147 54.7684H73.1961C73.0407 54.779 72.9432 54.752 72.9036 54.6857L72.9026 54.6867ZM73.8621 43.8174C73.6063 43.5847 73.4779 43.2973 73.4779 42.9531C73.4779 42.654 73.5889 42.3848 73.8119 42.1474C74.0339 41.9089 74.3013 41.7897 74.613 41.7897C74.9798 41.7897 75.308 41.8839 75.5975 42.0724C75.8871 42.2608 76.0309 42.5214 76.0309 42.854C76.0309 43.1309 75.9585 43.3694 75.8138 43.5684C75.669 43.7674 75.4943 43.9174 75.2877 44.0174C75.0821 44.1174 74.8842 44.1674 74.6951 44.1674C74.3949 44.1674 74.1169 44.051 73.8611 43.8184L73.8621 43.8174Z" fill="white"/>
<path d="M79.6775 54.6289C79.3716 54.601 79.1023 54.5876 78.8687 54.5876C78.6911 54.5876 78.4681 54.5991 78.2017 54.6212L77.8513 54.6376C77.6844 54.6376 77.6013 54.5712 77.6013 54.4376L77.6178 54.1222L77.5849 52.8762C77.5734 52.4108 77.5598 51.8292 77.5434 51.1311C77.527 50.4331 77.5241 50.012 77.5347 49.8678C77.5454 49.7793 77.5512 49.464 77.5512 48.9208V48.3054C77.5396 47.9622 77.5454 47.3911 77.5676 46.5931L77.584 45.1807C77.584 44.8154 77.5724 44.3558 77.5502 43.801C77.528 43.5462 77.5164 43.2251 77.5164 42.8367L77.5 42.554C77.5 42.4319 77.528 42.3656 77.584 42.355C77.6506 42.3444 77.7259 42.3415 77.8089 42.3463C77.8919 42.3521 77.9788 42.355 78.0676 42.355C78.2008 42.3665 78.4285 42.3713 78.7519 42.3713C79.1081 42.3713 79.3696 42.3656 79.5366 42.355C79.6476 42.355 79.7615 42.3521 79.8783 42.3463C79.9951 42.3406 80.0926 42.3434 80.1698 42.355C80.2036 42.355 80.2335 42.3742 80.2615 42.4127C80.2895 42.4521 80.303 42.4819 80.303 42.504L80.2692 42.7867L80.3194 43.6847L80.303 45.0144L80.3368 45.147C80.915 44.848 81.4931 44.6981 82.0723 44.6981C82.5501 44.6981 82.9371 44.7644 83.2325 44.8971C83.5269 45.0298 83.7971 45.2903 84.0413 45.6787C84.2971 46.0893 84.4747 46.4825 84.5751 46.8584C84.6311 47.1248 84.6591 47.4565 84.6591 47.8555L84.6929 48.4708C84.7595 49.4015 84.7932 50.0716 84.7932 50.4822C84.7932 50.737 84.7817 51.0417 84.7595 51.3965L84.743 51.9282C84.743 52.0061 84.7402 52.208 84.7344 52.5349C84.7286 52.8618 84.7257 53.4127 84.7257 54.1886C84.7257 54.2443 84.7315 54.2943 84.7421 54.3386C84.7527 54.3828 84.7585 54.4328 84.7585 54.4886C84.7585 54.5664 84.7025 54.6107 84.5915 54.6212C84.4805 54.6328 84.2189 54.6376 83.8077 54.6376C83.1514 54.6376 82.6948 54.6318 82.44 54.6212C82.3618 54.6212 82.273 54.6299 82.1727 54.6462C82.0723 54.6626 81.9893 54.6712 81.9227 54.6712C81.8445 54.6597 81.8059 54.6155 81.8059 54.5385C81.7615 54.1617 81.7393 53.3252 81.7393 52.0292L81.7557 50.8321C81.7779 50.2562 81.7885 49.8188 81.7885 49.5188C81.7885 48.9871 81.7412 48.5852 81.6466 48.3141C81.552 48.043 81.3599 47.9074 81.0713 47.9074C80.9381 47.9074 80.8262 47.9218 80.7374 47.9487C80.6486 47.9766 80.554 48.0237 80.4536 48.0901L80.47 51.3475C80.5038 52.2445 80.5202 52.8993 80.5202 53.3088C80.5202 53.7521 80.5086 54.0626 80.4864 54.2395V54.2895C80.4864 54.3338 80.4922 54.3838 80.5028 54.4386C80.5134 54.4943 80.5134 54.5328 80.5028 54.5549C80.5028 54.6328 80.414 54.6712 80.2354 54.6712C80.1688 54.6712 79.9826 54.6568 79.6766 54.6299L79.6775 54.6289Z" fill="white"/>
<path d="M61.3075 8.34543C60.0575 7.12727 58.7651 6.09563 57.4456 5.23801C60.0575 3.47951 62.5854 0.928766 62.5854 0.928766C59.5064 2.1777 56.4157 2.82379 53.0355 3.05839L52.9882 3.03916C51.1832 2.41037 49.3551 2.07675 47.5385 2.02002H47.5356C45.5154 1.95464 43.5087 2.23346 41.5609 2.82764C41.4885 2.68246 41.4084 2.53536 41.3215 2.38826C41.2298 2.22866 41.1294 2.07001 41.0242 1.91041C40.5706 1.22874 40.0107 0.559567 39.4499 0C39.3119 0.70667 39.0783 1.4643 38.7714 2.23923C38.6295 2.59785 38.4722 2.95936 38.3013 3.32279C38.1488 3.65257 37.9847 3.98043 37.8091 4.30924C34.0283 6.12543 30.9888 8.17526 28.3277 10.5741C27.097 11.6807 25.9474 12.8633 24.8432 14.1324C23.3693 15.8246 21.9745 17.6716 20.5759 19.6964C21.6309 18.6234 22.794 17.6206 24.0266 16.688C24.0517 16.6688 24.0768 16.6495 24.1019 16.6313C25.3268 15.7102 26.6202 14.8583 27.9493 14.0786C27.7688 14.3738 27.5902 14.6737 27.4155 14.9785C27.4155 14.9795 27.4146 14.9795 27.4146 14.9814C25.6241 18.1196 24.2168 21.7606 23.3268 25.8314C23.2612 26.1295 23.1984 26.4295 23.1396 26.7314C23.2091 26.5294 23.2815 26.3285 23.3538 26.1304C25.5217 20.2233 28.8614 16.0727 32.7378 13.4075C32.7378 13.4075 32.7378 13.4046 32.7387 13.4046C33.2764 13.0335 33.8246 12.6931 34.3825 12.3797C34.9539 12.0567 35.535 11.7634 36.1238 11.5C35.4298 11.9403 34.7551 12.4201 34.1074 12.9364C33.3999 13.4988 32.7223 14.1065 32.0833 14.7564C31.7793 15.4602 31.5032 16.2246 31.2571 17.0543C29.3797 23.3893 29.8334 28.1399 31.4936 31.0416C29.7726 31.2108 28.1105 31.5723 26.6163 32.1674C28.5564 32.1011 30.4946 32.0972 32.4897 32.1828C36.1383 32.3395 39.9789 32.7952 44.3726 33.7115C45.3156 33.9086 46.2847 34.1259 47.2818 34.3663C46.7712 33.9692 46.1129 33.5808 45.3369 33.2183C46.9488 32.3136 48.4101 31.0637 49.5433 29.5186C53.0094 24.7931 55.6706 17.1197 54.3337 12.5672C53.7913 12.2345 53.2343 11.9259 52.661 11.6394C51.9988 11.3067 51.3203 11.0067 50.6244 10.7375H50.6234C49.4207 10.2722 48.1708 9.90203 46.8918 9.64052C47.996 9.72224 49.0858 9.87992 50.1562 10.1126H50.1572C50.8985 10.2732 51.6282 10.4703 52.3444 10.7C52.8212 10.8519 53.2903 11.0202 53.7527 11.2029C56.3752 12.2364 58.7593 13.7344 60.7148 15.614C60.6328 16.1198 60.5372 16.6745 60.4301 17.237C60.1309 18.7859 59.7448 20.3963 59.3288 21.2241C60.2573 19.5579 61.3162 18.1061 62.4696 16.7591H62.4706C63.2399 15.8602 64.0516 15.0074 64.8981 14.169C65.1481 14.0517 65.4058 13.9238 65.6751 13.7815C66.5911 13.2979 67.6384 12.6528 68.9221 11.7201C66.0718 12.6201 61.3094 8.34351 61.3094 8.34351L61.3075 8.34543ZM39.0976 23.9758C39.0687 24.1393 39.088 24.2171 39.0668 24.1806C39.0281 24.1143 38.9915 24.0489 38.9567 23.9854C36.5543 19.5377 42.8697 19.2906 43.2336 16.1784C44.7394 19.0743 46.2741 21.4347 43.4045 23.6412C43.3089 23.7143 43.2124 23.7835 43.1168 23.8508C41.2163 25.1671 39.1884 25.2882 39.1295 28.1024C38.9374 26.3987 39.0117 25.1449 39.7579 23.9364C40.3582 22.9682 41.3891 22.0289 43.0599 20.9117C39.7038 22.2125 39.1835 23.4855 39.0967 23.9768L39.0976 23.9758ZM39.7858 14.567C39.8109 14.4911 39.8428 14.4132 39.8833 14.3343C40.114 13.8796 40.4856 13.6373 40.7549 13.6373C40.8148 13.6373 40.8708 13.6488 40.9181 13.6729C40.9885 13.7084 41.0474 13.7729 41.0908 13.8594C41.2047 14.093 41.2009 14.4882 40.9953 14.8929C40.781 15.315 40.4461 15.5554 40.1816 15.5852C40.0995 15.5967 40.0233 15.5852 39.9606 15.5535C39.8302 15.4871 39.7405 15.3218 39.7183 15.1035C39.7019 14.9468 39.7212 14.7612 39.7868 14.5661L39.7858 14.567ZM35.7464 16.1448C36.2599 15.1362 37.1865 14.5468 37.9616 14.6709C38.0842 14.692 38.2038 14.7295 38.3158 14.7862C38.3477 14.8026 38.3795 14.8208 38.4104 14.8401C38.4201 14.8458 38.4297 14.8516 38.4394 14.8593C38.4509 14.866 38.4616 14.8728 38.4731 14.8814C38.4924 14.8939 38.5108 14.9074 38.5272 14.9218C38.5523 14.941 38.5755 14.9631 38.5996 14.9843C38.6121 14.9968 38.6247 15.0093 38.6372 15.0218C38.6604 15.0449 38.6836 15.0699 38.7058 15.0968C38.7241 15.1179 38.7405 15.14 38.7569 15.1631C38.7598 15.1641 38.7608 15.167 38.7627 15.1698C38.7743 15.1852 38.7849 15.2006 38.7946 15.217C38.8042 15.2304 38.8139 15.2448 38.8225 15.2602C38.8322 15.2756 38.8419 15.291 38.8505 15.3064C38.8718 15.3439 38.8911 15.3823 38.9094 15.4227C38.9162 15.4362 38.922 15.4487 38.9278 15.4631C38.9403 15.491 38.9509 15.5189 38.9615 15.5458C38.9673 15.565 38.9741 15.5833 38.9808 15.6015C38.9818 15.6044 38.9837 15.6073 38.9837 15.6102C38.9837 15.6112 38.9847 15.6131 38.9847 15.614C38.9847 15.615 38.9857 15.615 38.9857 15.6169C39.005 15.6794 39.0214 15.7448 39.0359 15.8111C39.0426 15.8419 39.0484 15.8717 39.0542 15.9044C39.0774 16.0515 39.088 16.2034 39.0822 16.3611C39.0696 16.7755 38.9567 17.2235 38.7376 17.6562C38.3747 18.3676 37.8042 18.8724 37.229 19.0618C36.8602 19.1839 36.4896 19.1772 36.1663 19.0147C36.1257 18.9936 36.0881 18.9714 36.0504 18.9464C35.6083 18.6599 35.3835 18.0975 35.4008 17.4504C35.4124 17.0331 35.5244 16.5822 35.7473 16.1457L35.7464 16.1448ZM49.7064 17.7158C50.5375 18.1879 51.2933 18.7686 51.94 19.4676C51.0307 25.0863 47.6988 30.8983 44.5222 32.8645C44.2375 32.7491 43.9411 32.6376 43.6352 32.5289C40.8206 31.5329 37.118 30.8589 33.4887 30.9252C33.1644 30.931 32.8391 30.9435 32.5167 30.9627C31.6229 28.934 31.4463 24.1816 33.2107 18.6734C33.5891 18.3946 34.007 18.1359 34.4617 17.8965C34.3787 19.0714 34.7966 20.0963 35.6508 20.529C35.4433 21.4876 35.2821 22.5259 35.1711 23.647C34.3593 31.8751 42.1188 33.9548 46.8465 24.0441C47.2036 23.2961 47.5434 22.4808 47.86 21.5924C48.4401 19.9704 48.691 18.4994 48.6862 17.2043C48.6804 15.8246 48.3831 14.6459 47.8793 13.6998C48.887 14.593 49.5732 15.9669 49.7064 17.7139V17.7158Z" fill="white"/>
<path d="M55.383 30.7945C53.7672 33.7106 52.4873 34.7691 50.9912 35.4844C52.4101 35.6729 53.1543 36.0796 55.4361 37.1506C54.3328 34.4961 55.383 30.7945 55.383 30.7945Z" fill="white"/>
<path d="M58.1271 24.7594C57.5258 26.6362 56.4177 28.6254 56.4177 28.6254C58.1252 27.1823 59.1358 26.7977 60.1744 26.666C59.4273 26.265 59.1184 25.8689 58.1271 24.7594Z" fill="white"/>
</g>
<defs>
<clipPath id="clip0_218_201">
<rect width="88" height="55" fill="white"/>
</clipPath>
</defs>
</svg>
