<svg width="48" height="48" viewBox="0 0 48 48" fill="none" xmlns="http://www.w3.org/2000/svg">
<g filter="url(#filter0_d_370_7717)">
<rect x="4" y="4" width="32" height="32" rx="4" fill="#66AC6E"/>
<g clip-path="url(#clip0_370_7717)">
<path fill-rule="evenodd" clip-rule="evenodd" d="M22.2417 9.58141L19.5706 13.1429C19.6511 13.2033 19.7278 13.2698 19.8 13.3419L26.6572 20.1991C26.7294 20.2713 26.7959 20.3481 26.8562 20.4287L30.4178 17.7575C31.2523 17.1316 31.3391 15.9116 30.6014 15.1739L24.8253 9.3978C24.0876 8.66013 22.8676 8.74683 22.2417 9.58141ZM10.3665 17.0063L8.2832 30.2007L13.341 25.1428L12.8129 24.6147C12.3945 24.1963 12.3945 23.5179 12.8129 23.0995C13.2313 22.6811 13.9097 22.6811 14.3281 23.0995L16.8996 25.6709C17.318 26.0893 17.318 26.7677 16.8996 27.1861C16.4812 27.6046 15.8028 27.6046 15.3843 27.1861L14.8563 26.6581L9.79844 31.716L22.9928 29.6326C23.7558 29.5121 24.344 28.8963 24.4293 28.1286L25.1419 21.7143L18.2848 14.8572L11.8705 15.5699C11.1028 15.6552 10.487 16.2433 10.3665 17.0063Z" fill="#F9F9F9"/>
</g>
</g>
<defs>
<filter id="filter0_d_370_7717" x="0" y="0" width="48" height="48" filterUnits="userSpaceOnUse" color-interpolation-filters="sRGB">
<feFlood flood-opacity="0" result="BackgroundImageFix"/>
<feColorMatrix in="SourceAlpha" type="matrix" values="0 0 0 0 0 0 0 0 0 0 0 0 0 0 0 0 0 0 127 0" result="hardAlpha"/>
<feOffset dx="4" dy="4"/>
<feGaussianBlur stdDeviation="4"/>
<feComposite in2="hardAlpha" operator="out"/>
<feColorMatrix type="matrix" values="0 0 0 0 0 0 0 0 0 0 0 0 0 0 0 0 0 0 0.08 0"/>
<feBlend mode="normal" in2="BackgroundImageFix" result="effect1_dropShadow_370_7717"/>
<feBlend mode="normal" in="SourceGraphic" in2="effect1_dropShadow_370_7717" result="shape"/>
</filter>
<clipPath id="clip0_370_7717">
<rect width="24" height="24" fill="white" transform="translate(8 8)"/>
</clipPath>
</defs>
</svg>
