<svg width="48" height="48" viewBox="0 0 48 48" fill="none" xmlns="http://www.w3.org/2000/svg">
<g clip-path="url(#clip0_367_7919)">
<path fill-rule="evenodd" clip-rule="evenodd" d="M31.2983 16.1051C31.1685 16.4184 30.9488 16.6862 30.6668 16.8746C30.3849 17.0629 30.0534 17.1635 29.7143 17.1634H25.7143V23.4491C25.7143 23.9038 25.5337 24.3398 25.2122 24.6613C24.8907 24.9828 24.4547 25.1634 24 25.1634C23.5453 25.1634 23.1093 24.9828 22.7878 24.6613C22.4663 24.3398 22.2857 23.9038 22.2857 23.4491V17.1634H18.2857C17.9469 17.1631 17.6157 17.0624 17.3341 16.874C17.0525 16.6857 16.833 16.418 16.7033 16.105C16.5737 15.7919 16.5398 15.4475 16.6058 15.1151C16.6718 14.7828 16.8348 14.4775 17.0743 14.2377L22.7886 8.52343C23.11 8.2024 23.5457 8.02208 24 8.02208C24.4543 8.02208 24.89 8.2024 25.2114 8.52343L30.9257 14.2377C31.1655 14.4773 31.3288 14.7826 31.3951 15.1149C31.4615 15.4473 31.4277 15.7919 31.2983 16.1051ZM9.14286 27.04C8.83975 27.04 8.54906 27.1604 8.33474 27.3747C8.12041 27.5891 8 27.8798 8 28.1829V36.5714C8 37.4807 8.36122 38.3528 9.00421 38.9958C9.64719 39.6388 10.5193 40 11.4286 40H36.5714C37.4807 40 38.3528 39.6388 38.9958 38.9958C39.6388 38.3528 40 37.4807 40 36.5714V28.1829C40 27.8798 39.8796 27.5891 39.6653 27.3747C39.4509 27.1604 39.1602 27.04 38.8571 27.04H32.0617C31.1524 27.04 30.2803 27.4012 29.6373 28.0442C28.9944 28.6872 28.6331 29.5593 28.6331 30.4686C28.6331 32.6949 26.4023 34.4274 23.9931 34.4114C21.6526 34.3954 19.4903 32.656 19.4903 30.4686C19.4903 29.5593 19.1291 28.6872 18.4861 28.0442C17.8431 27.4012 16.971 27.04 16.0617 27.04H9.14286Z" fill="#66AC6E"/>
</g>
<defs>
<clipPath id="clip0_367_7919">
<rect width="32" height="32" fill="white" transform="translate(8 8)"/>
</clipPath>
</defs>
</svg>
