<svg width="80" height="80" viewBox="0 0 80 80" fill="none" xmlns="http://www.w3.org/2000/svg">
<path d="M44.7219 8.42622C44.2766 7.55701 43.6 6.82756 42.7668 6.3182C41.9335 5.80883 40.9758 5.53931 39.9992 5.53931C39.0225 5.53931 38.0648 5.80883 37.2316 6.3182C36.3983 6.82756 35.7217 7.55701 35.2765 8.42622L6.09109 66.7969C5.68403 67.6046 5.49023 68.503 5.52809 69.4072C5.56594 70.3109 5.8342 71.1896 6.30739 71.9606C6.78058 72.7316 7.44299 73.369 8.23172 73.8115C9.02042 74.2546 9.90924 74.4886 10.8138 74.4913H69.1844C70.0891 74.4886 70.978 74.2546 71.7665 73.8115C72.5556 73.369 73.2178 72.7316 73.6911 71.9606C74.1639 71.1896 74.4324 70.3109 74.4701 69.4072C74.5083 68.503 74.3141 67.6046 73.9071 66.7969L44.7219 8.42622Z" stroke="#F9F9F9" stroke-width="5.71" stroke-linecap="round" stroke-linejoin="round"/>
<path d="M40 29.3871V46.633" stroke="#F9F9F9" stroke-width="5.71" stroke-linecap="round" stroke-linejoin="round"/>
<path d="M39.9985 61.2257C39.2658 61.2257 38.6719 60.6319 38.6719 59.8991C38.6719 59.1663 39.2658 58.5725 39.9985 58.5725" stroke="#F9F9F9" stroke-width="5.71" stroke-linecap="round" stroke-linejoin="round"/>
<path d="M39.998 61.2257C40.7307 61.2257 41.3247 60.6319 41.3247 59.8991C41.3247 59.1663 40.7307 58.5725 39.998 58.5725" stroke="#F9F9F9" stroke-width="5.71" stroke-linecap="round" stroke-linejoin="round"/>
</svg>
